  0
SECTION
  2
HEADER
  9
$ACADVER
  1
AC1015
  9
$ACADMAINTVER
 70
     6
  9
$DWGCODEPAGE
  3
ANSI_1252
  9
$INSBASE
 10
0.0
 20
0.0
 30
0.0
  9
$EXTMIN
 10
-209.5550874724
 20
-609.9101749447
 30
0.0
  9
$EXTMAX
 10
9.5550874724
 20
-188.9101749447
 30
0.0
  9
$LIMMIN
 10
0.0
 20
0.0
  9
$LIMMAX
 10
420.0
 20
297.0
  9
$ORTHOMODE
 70
     0
  9
$REGENMODE
 70
     1
  9
$FILLMODE
 70
     1
  9
$QTEXTMODE
 70
     0
  9
$MIRRTEXT
 70
     1
  9
$LTSCALE
 40
1.0
  9
$ATTMODE
 70
     1
  9
$TEXTSIZE
 40
3.5
  9
$TRACEWID
 40
1.0
  9
$TEXTSTYLE
  7
Standard
  9
$CLAYER
  8
0
  9
$CELTYPE
  6
ByLayer
  9
$CECOLOR
 62
   256
  9
$CELTSCALE
 40
1.0
  9
$DISPSILH
 70
     0
  9
$DIMSCALE
 40
1.0
  9
$DIMASZ
 40
3.302
  9
$DIMEXO
 40
0.0
  9
$DIMDLI
 40
3.75
  9
$DIMRND
 40
0.0
  9
$DIMDLE
 40
0.0
  9
$DIMEXE
 40
3.175
  9
$DIMTP
 40
0.0
  9
$DIMTM
 40
0.0
  9
$DIMTXT
 40
3.5
  9
$DIMCEN
 40
2.5
  9
$DIMTSZ
 40
0.0
  9
$DIMTOL
 70
     0
  9
$DIMLIM
 70
     0
  9
$DIMTIH
 70
     1
  9
$DIMTOH
 70
     1
  9
$DIMSE1
 70
     0
  9
$DIMSE2
 70
     0
  9
$DIMTAD
 70
     1
  9
$DIMZIN
 70
     1
  9
$DIMBLK
  1

  9
$DIMASO
 70
     1
  9
$DIMSHO
 70
     1
  9
$DIMPOST
  1

  9
$DIMAPOST
  1

  9
$DIMALT
 70
     0
  9
$DIMALTD
 70
     3
  9
$DIMALTF
 40
0.0393700787
  9
$DIMLFAC
 40
1.0
  9
$DIMTOFL
 70
     1
  9
$DIMTVP
 40
0.0
  9
$DIMTIX
 70
     0
  9
$DIMSOXD
 70
     0
  9
$DIMSAH
 70
     0
  9
$DIMBLK1
  1

  9
$DIMBLK2
  1

  9
$DIMSTYLE
  2
ISO-25
  9
$DIMCLRD
 70
     0
  9
$DIMCLRE
 70
     0
  9
$DIMCLRT
 70
     0
  9
$DIMTFAC
 40
1.0
  9
$DIMGAP
 40
1.524
  9
$DIMJUST
 70
     0
  9
$DIMSD1
 70
     0
  9
$DIMSD2
 70
     0
  9
$DIMTOLJ
 70
     0
  9
$DIMTZIN
 70
     1
  9
$DIMALTZ
 70
     0
  9
$DIMALTTZ
 70
     0
  9
$DIMUPT
 70
     0
  9
$DIMDEC
 70
     2
  9
$DIMTDEC
 70
     2
  9
$DIMALTU
 70
     2
  9
$DIMALTTD
 70
     3
  9
$DIMTXSTY
  7
Standard
  9
$DIMAUNIT
 70
     0
  9
$DIMADEC
 70
     2
  9
$DIMALTRND
 40
0.0
  9
$DIMAZIN
 70
     0
  9
$DIMDSEP
 70
    44
  9
$DIMATFIT
 70
     3
  9
$DIMFRAC
 70
     0
  9
$DIMLDRBLK
  1

  9
$DIMLUNIT
 70
     2
  9
$DIMLWD
 70
    -2
  9
$DIMLWE
 70
    -2
  9
$DIMTMOVE
 70
     0
  9
$LUNITS
 70
     2
  9
$LUPREC
 70
     2
  9
$SKETCHINC
 40
1.0
  9
$FILLETRAD
 40
10.0
  9
$AUNITS
 70
     0
  9
$AUPREC
 70
     2
  9
$MENU
  1
.
  9
$ELEVATION
 40
0.0
  9
$PELEVATION
 40
0.0
  9
$THICKNESS
 40
0.0
  9
$LIMCHECK
 70
     0
  9
$CHAMFERA
 40
0.0
  9
$CHAMFERB
 40
0.0
  9
$CHAMFERC
 40
0.0
  9
$CHAMFERD
 40
0.0
  9
$SKPOLY
 70
     0
  9
$TDCREATE
 40
2460654.509715394
  9
$TDUCREATE
 40
2460654.280548727
  9
$TDUPDATE
 40
2460654.50994912
  9
$TDUUPDATE
 40
2460654.280782454
  9
$TDINDWG
 40
0.0000000116
  9
$TDUSRTIMER
 40
0.0000000116
  9
$USRTIMER
 70
     1
  9
$ANGBASE
 50
0.0
  9
$ANGDIR
 70
     0
  9
$PDMODE
 70
     0
  9
$PDSIZE
 40
-1.0
  9
$PLINEWID
 40
0.0
  9
$SPLFRAME
 70
     0
  9
$SPLINETYPE
 70
     6
  9
$SPLINESEGS
 70
     8
  9
$HANDSEED
  5
33F
  9
$SURFTAB1
 70
     6
  9
$SURFTAB2
 70
     6
  9
$SURFTYPE
 70
     6
  9
$SURFU
 70
     6
  9
$SURFV
 70
     6
  9
$UCSBASE
  2

  9
$UCSNAME
  2

  9
$UCSORG
 10
0.0
 20
0.0
 30
0.0
  9
$UCSXDIR
 10
1.0
 20
0.0
 30
0.0
  9
$UCSYDIR
 10
0.0
 20
1.0
 30
0.0
  9
$UCSORTHOREF
  2

  9
$UCSORTHOVIEW
 70
     0
  9
$UCSORGTOP
 10
0.0
 20
0.0
 30
0.0
  9
$UCSORGBOTTOM
 10
0.0
 20
0.0
 30
0.0
  9
$UCSORGLEFT
 10
0.0
 20
0.0
 30
0.0
  9
$UCSORGRIGHT
 10
0.0
 20
0.0
 30
0.0
  9
$UCSORGFRONT
 10
0.0
 20
0.0
 30
0.0
  9
$UCSORGBACK
 10
0.0
 20
0.0
 30
0.0
  9
$PUCSBASE
  2

  9
$PUCSNAME
  2

  9
$PUCSORG
 10
0.0
 20
0.0
 30
0.0
  9
$PUCSXDIR
 10
1.0
 20
0.0
 30
0.0
  9
$PUCSYDIR
 10
0.0
 20
1.0
 30
0.0
  9
$PUCSORTHOREF
  2

  9
$PUCSORTHOVIEW
 70
     0
  9
$PUCSORGTOP
 10
0.0
 20
0.0
 30
0.0
  9
$PUCSORGBOTTOM
 10
0.0
 20
0.0
 30
0.0
  9
$PUCSORGLEFT
 10
0.0
 20
0.0
 30
0.0
  9
$PUCSORGRIGHT
 10
0.0
 20
0.0
 30
0.0
  9
$PUCSORGFRONT
 10
0.0
 20
0.0
 30
0.0
  9
$PUCSORGBACK
 10
0.0
 20
0.0
 30
0.0
  9
$USERI1
 70
     0
  9
$USERI2
 70
     0
  9
$USERI3
 70
     0
  9
$USERI4
 70
     0
  9
$USERI5
 70
     0
  9
$USERR1
 40
0.0
  9
$USERR2
 40
0.0
  9
$USERR3
 40
0.0
  9
$USERR4
 40
0.0
  9
$USERR5
 40
0.0
  9
$WORLDVIEW
 70
     1
  9
$SHADEDGE
 70
     3
  9
$SHADEDIF
 70
    70
  9
$TILEMODE
 70
     1
  9
$MAXACTVP
 70
    64
  9
$PINSBASE
 10
0.0
 20
0.0
 30
0.0
  9
$PLIMCHECK
 70
     0
  9
$PEXTMIN
 10
1.0000000000E+20
 20
1.0000000000E+20
 30
1.0000000000E+20
  9
$PEXTMAX
 10
-1.0000000000E+20
 20
-1.0000000000E+20
 30
-1.0000000000E+20
  9
$PLIMMIN
 10
0.0
 20
0.0
  9
$PLIMMAX
 10
420.0
 20
297.0
  9
$UNITMODE
 70
     0
  9
$VISRETAIN
 70
     1
  9
$PLINEGEN
 70
     0
  9
$PSLTSCALE
 70
     1
  9
$TREEDEPTH
 70
  3020
  9
$CMLSTYLE
  2
Standard
  9
$CMLJUST
 70
     0
  9
$CMLSCALE
 40
20.0
  9
$PROXYGRAPHICS
 70
     1
  9
$MEASUREMENT
 70
     1
  9
$CELWEIGHT
370
    -1
  9
$ENDCAPS
280
     0
  9
$JOINSTYLE
280
     0
  9
$LWDISPLAY
290
     1
  9
$INSUNITS
 70
     4
  9
$HYPERLINKBASE
  1

  9
$STYLESHEET
  1

  9
$XEDIT
290
     1
  9
$CEPSNTYPE
380
     0
  9
$PSTYLEMODE
290
     1
  9
$FINGERPRINTGUID
  2
{7937315d-46de-4b63-9fe4-365da575bee2}
  9
$VERSIONGUID
  2
{FAEB1C32-E019-11D5-929B-00C0DF256EC4}
  9
$EXTNAMES
290
     1
  9
$PSVPSCALE
 40
0.0
  9
$OLESTARTUP
290
     0
  0
ENDSEC
  0
SECTION
  2
CLASSES
  0
CLASS
  1
ACDBDICTIONARYWDFLT
  2
AcDbDictionaryWithDefault
  3
ObjectDBX Classes
 90
        0
280
     0
281
     0
  0
CLASS
  1
VISUALSTYLE
  2
AcDbVisualStyle
  3
ObjectDBX Classes
 90
     4095
280
     0
281
     0
  0
CLASS
  1
MATERIAL
  2
AcDbMaterial
  3
ObjectDBX Classes
 90
     1153
280
     0
281
     0
  0
CLASS
  1
SCALE
  2
AcDbScale
  3
ObjectDBX Classes
 90
     1153
280
     0
281
     0
  0
CLASS
  1
TABLESTYLE
  2
AcDbTableStyle
  3
ObjectDBX Classes
 90
     4095
280
     0
281
     0
  0
CLASS
  1
MLEADERSTYLE
  2
AcDbMLeaderStyle
  3
ACDB_MLEADERSTYLE_CLASS
 90
     4095
280
     0
281
     0
  0
CLASS
  1
SUN
  2
AcDbSun
  3
SCENEOE
 90
     1153
280
     0
281
     0
  0
CLASS
  1
ACDBPLACEHOLDER
  2
AcDbPlaceHolder
  3
ObjectDBX Classes
 90
        0
280
     0
281
     0
  0
CLASS
  1
LAYOUT
  2
AcDbLayout
  3
ObjectDBX Classes
 90
        0
280
     0
281
     0
  0
ENDSEC
  0
SECTION
  2
TABLES
  0
TABLE
  2
VPORT
  5
8
330
0
100
AcDbSymbolTable
 70
     1
  0
VPORT
  5
29
330
8
100
AcDbSymbolTableRecord
100
AcDbViewportTableRecord
  2
*Active
 70
     0
 10
0.0
 20
0.0
 11
1.0
 21
1.0
 12
-100.0
 22
-399.4101749447
 13
0.0
 23
0.0
 14
10.0
 24
10.0
 15
10.0
 25
10.0
 16
0.0
 26
0.0
 36
1.0
 17
0.0
 27
0.0
 37
0.0
 40
429.42
 41
0.520451722
 42
50.0
 43
0.0
 44
0.0
 50
0.0
 51
0.0
 71
     0
 72
   100
 73
     1
 74
     3
 75
     0
 76
     0
 77
     0
 78
     0
281
     0
 65
     1
110
0.0
120
0.0
130
0.0
111
1.0
121
0.0
131
0.0
112
0.0
122
1.0
132
0.0
 79
     0
146
0.0
  0
ENDTAB
  0
TABLE
  2
LTYPE
  5
5
330
0
100
AcDbSymbolTable
 70
     6
  0
LTYPE
  5
14
330
5
100
AcDbSymbolTableRecord
100
AcDbLinetypeTableRecord
  2
ByBlock
 70
     0
  3

 72
    65
 73
     0
 40
0.0
  0
LTYPE
  5
15
330
5
100
AcDbSymbolTableRecord
100
AcDbLinetypeTableRecord
  2
ByLayer
 70
     0
  3

 72
    65
 73
     0
 40
0.0
  0
LTYPE
  5
16
330
5
100
AcDbSymbolTableRecord
100
AcDbLinetypeTableRecord
  2
Continuous
 70
     0
  3
Solid line
 72
    65
 73
     0
 40
0.0
  0
LTYPE
  5
6E
330
5
100
AcDbSymbolTableRecord
100
AcDbLinetypeTableRecord
  2
HIDDEN
 70
     0
  3
Hidden __ __ __ __ __ __ __ __ __ __ __ __ __ __
 72
    65
 73
     2
 40
1.905
 49
1.27
 74
     0
 49
-0.635
 74
     0
  0
LTYPE
  5
6F
330
5
100
AcDbSymbolTableRecord
100
AcDbLinetypeTableRecord
  2
PHANTOM
 70
     0
  3
Phantom ______  __  __  ______  __  __  ______
 72
    65
 73
     6
 40
12.7
 49
6.35
 74
     0
 49
-1.27
 74
     0
 49
1.27
 74
     0
 49
-1.27
 74
     0
 49
1.27
 74
     0
 49
-1.27
 74
     0
  0
LTYPE
  5
70
330
5
100
AcDbSymbolTableRecord
100
AcDbLinetypeTableRecord
  2
CENTER
 70
     0
  3
Center ____ _ ____ _ ____ _ ____ _ ____ _ ____
 72
    65
 73
     4
 40
10.16
 49
6.35
 74
     0
 49
-1.27
 74
     0
 49
1.27
 74
     0
 49
-1.27
 74
     0
  0
LTYPE
  5
71
330
5
100
AcDbSymbolTableRecord
100
AcDbLinetypeTableRecord
  2
CENTERX2
 70
     0
  3
Center (2x) ________  __  ________  __  _____
 72
    65
 73
     4
 40
20.32
 49
12.7
 74
     0
 49
-2.54
 74
     0
 49
2.54
 74
     0
 49
-2.54
 74
     0
  0
LTYPE
  5
72
330
5
100
AcDbSymbolTableRecord
100
AcDbLinetypeTableRecord
  2
DOT2
 70
     0
  3
Dot (.5x) ........................................
 72
    65
 73
     2
 40
0.635
 49
0.0
 74
     0
 49
-0.635
 74
     0
  0
ENDTAB
  0
TABLE
  2
LAYER
  5
2
330
0
100
AcDbSymbolTable
 70
     1
  0
LAYER
  5
10
330
2
100
AcDbSymbolTableRecord
100
AcDbLayerTableRecord
  2
0
 70
     0
 62
     7
  6
Continuous
370
    -3
390
F
  0
ENDTAB
  0
TABLE
  2
STYLE
  5
3
330
0
100
AcDbSymbolTable
 70
     2
  0
STYLE
  5
11
330
3
100
AcDbSymbolTableRecord
100
AcDbTextStyleTableRecord
  2
Standard
 70
     0
 40
0.0
 41
1.0
 50
0.0
 71
     0
 42
3.5
  3
txt
  4

  0
STYLE
  5
33B
330
3
100
AcDbSymbolTableRecord
100
AcDbTextStyleTableRecord
  2
SLDTEXTSTYLE0
 70
     0
 40
0.0
 41
0.7
 50
0.0
 71
     0
 42
3.5
  3
TXT
  4

  0
ENDTAB
  0
TABLE
  2
VIEW
  5
6
330
0
100
AcDbSymbolTable
 70
     0
  0
ENDTAB
  0
TABLE
  2
UCS
  5
7
330
0
100
AcDbSymbolTable
 70
     0
  0
ENDTAB
  0
TABLE
  2
APPID
  5
9
330
0
100
AcDbSymbolTable
 70
     1
  0
APPID
  5
12
330
9
100
AcDbSymbolTableRecord
100
AcDbRegAppTableRecord
  2
ACAD
 70
     0
  0
ENDTAB
  0
TABLE
  2
DIMSTYLE
  5
A
330
0
100
AcDbSymbolTable
 70
     1
100
AcDbDimStyleTable
  0
DIMSTYLE
105
27
330
A
100
AcDbSymbolTableRecord
100
AcDbDimStyleTableRecord
  2
ISO-25
 70
     0
 41
2.5
 42
0.625
 43
3.75
 44
1.25
 73
     0
 74
     0
 77
     1
 78
     8
140
2.5
141
2.5
143
0.0393700787
147
0.625
171
     3
172
     1
178
     0
271
     2
272
     2
274
     3
278
    44
283
     0
284
     8
340
11
  0
ENDTAB
  0
TABLE
  2
BLOCK_RECORD
  5
1
330
0
100
AcDbSymbolTable
 70
     1
  0
BLOCK_RECORD
  5
1F
330
1
100
AcDbSymbolTableRecord
100
AcDbBlockTableRecord
  2
*Model_Space
340
22
  0
BLOCK_RECORD
  5
1B
330
1
100
AcDbSymbolTableRecord
100
AcDbBlockTableRecord
  2
*Paper_Space
340
1E
  0
BLOCK_RECORD
  5
23
330
1
100
AcDbSymbolTableRecord
100
AcDbBlockTableRecord
  2
*Paper_Space0
340
26
  0
ENDTAB
  0
ENDSEC
  0
SECTION
  2
BLOCKS
  0
BLOCK
  5
20
330
1F
100
AcDbEntity
  8
0
100
AcDbBlockBegin
  2
*Model_Space
 70
     0
 10
0.0
 20
0.0
 30
0.0
  3
*Model_Space
  1

  0
ENDBLK
  5
21
330
1F
100
AcDbEntity
  8
0
100
AcDbBlockEnd
  0
BLOCK
  5
1C
330
1B
100
AcDbEntity
 67
     1
  8
0
100
AcDbBlockBegin
  2
*Paper_Space
 70
     0
 10
0.0
 20
0.0
 30
0.0
  3
*Paper_Space
  1

  0
ENDBLK
  5
1D
330
1B
100
AcDbEntity
 67
     1
  8
0
100
AcDbBlockEnd
  0
BLOCK
  5
24
330
23
100
AcDbEntity
  8
0
100
AcDbBlockBegin
  2
*Paper_Space0
 70
     0
 10
0.0
 20
0.0
 30
0.0
  3
*Paper_Space0
  1

  0
ENDBLK
  5
25
330
23
100
AcDbEntity
  8
0
100
AcDbBlockEnd
  0
ENDSEC
  0
SECTION
  2
ENTITIES
  0
LINE
  5
73
330
1F
100
AcDbEntity
  8
0
  6
CENTERX2
 62
     7
100
AcDbLine
 10
-178.1435876995
 20
-599.3877186809
 30
0.0
 11
-22.0
 21
-599.3877186809
 31
0.0
  0
LINE
  5
74
330
1F
100
AcDbEntity
  8
0
  6
CENTERX2
 62
     7
100
AcDbLine
 10
-200.0
 20
-499.3877186809
 30
0.0
 11
-190.0
 21
-499.3877186809
 31
0.0
  0
LINE
  5
75
330
1F
100
AcDbEntity
  8
0
  6
CENTERX2
 62
     7
100
AcDbLine
 10
0.0
 20
-299.4326312085
 30
0.0
 11
-200.0
 21
-299.4326312085
 31
0.0
  0
LINE
  5
76
330
1F
100
AcDbEntity
  8
0
  6
CENTERX2
 62
     7
100
AcDbLine
 10
-200.0
 20
-199.4326312085
 30
0.0
 11
0.0
 21
-199.4326312085
 31
0.0
  0
LINE
  5
77
330
1F
100
AcDbEntity
  8
0
  6
CENTERX2
 62
     7
100
AcDbLine
 10
-199.4775437362
 20
-219.9550874724
 30
0.0
 11
-199.4775437362
 21
-279.9550874724
 31
0.0
  0
LINE
  5
78
330
1F
100
AcDbEntity
  8
0
  6
CENTERX2
 62
     7
100
AcDbLine
 10
-199.4775437362
 20
-300.2467749447
 30
0.0
 11
-199.4775437362
 21
-498.5735749447
 31
0.0
  0
LINE
  5
79
330
1F
100
AcDbEntity
  8
0
  6
CENTERX2
 62
     7
100
AcDbLine
 10
-178.0
 20
-499.3877186809
 30
0.0
 11
-22.0
 21
-499.3877186809
 31
0.0
  0
LINE
  5
7A
330
1F
100
AcDbEntity
  8
0
  6
CENTERX2
 62
     7
100
AcDbLine
 10
-10.0
 20
-599.3877186809
 30
0.0
 11
0.0
 21
-599.3877186809
 31
0.0
  0
LINE
  5
7B
330
1F
100
AcDbEntity
  8
0
  6
CENTERX2
 62
     7
100
AcDbLine
 10
-10.0
 20
-499.3877186809
 30
0.0
 11
0.0
 21
-499.3877186809
 31
0.0
  0
LINE
  5
7C
330
1F
100
AcDbEntity
  8
0
  6
CENTERX2
 62
     7
100
AcDbLine
 10
-200.0
 20
-599.3877186809
 30
0.0
 11
-190.1435876995
 21
-599.3877186809
 31
0.0
  0
LINE
  5
7D
330
1F
100
AcDbEntity
  8
0
  6
CENTERX2
 62
     7
100
AcDbLine
 10
-0.5224562638
 20
-279.9550874724
 30
0.0
 11
-0.5224562638
 21
-219.9550874724
 31
0.0
  0
LINE
  5
7E
330
1F
100
AcDbEntity
  8
0
  6
CENTERX2
 62
     7
100
AcDbLine
 10
-0.5224562638
 20
-498.5735749447
 30
0.0
 11
-0.5224562638
 21
-300.2467749447
 31
0.0
  0
CIRCLE
  5
8F
330
1F
100
AcDbEntity
  8
0
  6
Continuous
 62
     7
370
    25
100
AcDbCircle
 10
-10.0
 20
-492.5735749447
 30
0.0
 40
1.500000000000057
  0
CIRCLE
  5
92
330
1F
100
AcDbEntity
  8
0
  6
Continuous
 62
     7
370
    25
100
AcDbCircle
 10
-10.0
 20
-306.2467749447
 30
0.0
 40
1.5
  0
CIRCLE
  5
97
330
1F
100
AcDbEntity
  8
0
  6
Continuous
 62
     7
370
    25
100
AcDbCircle
 10
-188.6634
 20
-492.5735749447
 30
0.0
 40
1.5
  0
CIRCLE
  5
A0
330
1F
100
AcDbEntity
  8
0
  6
Continuous
 62
     7
370
    25
100
AcDbCircle
 10
-188.6634
 20
-306.2467749447
 30
0.0
 40
1.500000000000057
  0
CIRCLE
  5
DB
330
1F
100
AcDbEntity
  8
0
  6
Continuous
 62
     7
370
    25
100
AcDbCircle
 10
-20.0
 20
-193.9101749447
 30
0.0
 40
2.500000000000036
  0
CIRCLE
  5
DC
330
1F
100
AcDbEntity
  8
0
  6
Continuous
 62
     7
370
    25
100
AcDbCircle
 10
-180.0
 20
-193.9101749447
 30
0.0
 40
2.500000000000028
  0
CIRCLE
  5
DD
330
1F
100
AcDbEntity
  8
0
  6
Continuous
 62
     7
370
    25
100
AcDbCircle
 10
-130.0
 20
-249.4326312085
 30
0.0
 40
4.999999999999972
  0
CIRCLE
  5
DE
330
1F
100
AcDbEntity
  8
0
  6
Continuous
 62
     7
370
    25
100
AcDbCircle
 10
-170.0
 20
-249.4326312085
 30
0.0
 40
5.0
  0
CIRCLE
  5
DF
330
1F
100
AcDbEntity
  8
0
  6
Continuous
 62
     7
370
    25
100
AcDbCircle
 10
-30.0
 20
-259.4326312085
 30
0.0
 40
2.5
  0
CIRCLE
  5
E0
330
1F
100
AcDbEntity
  8
0
  6
Continuous
 62
     7
370
    25
100
AcDbCircle
 10
-30.0
 20
-239.4326312085
 30
0.0
 40
2.5
  0
SPLINE
  5
F0
330
1F
100
AcDbEntity
  8
0
  6
Continuous
 62
     7
370
    25
100
AcDbSpline
210
0.0
220
0.0
230
1.0
 70
     8
 71
     3
 72
    11
 73
     7
 74
     0
 42
0.00000001
 43
0.00000001
 40
0.0212835453930275
 40
0.0212835453930275
 40
0.0212835453930275
 40
0.0212835453930275
 40
0.03125
 40
0.0625
 40
0.09375
 40
0.1037164545865199
 40
0.1037164545865199
 40
0.1037164545865199
 40
0.1037164545865199
 10
-71.19992115647293
 20
-525.7879257555296
 30
0.0
 10
-71.69642057344538
 20
-525.8546952602246
 30
0.0
 10
-73.74105615521769
 20
-526.1950468814323
 30
0.0
 10
-77.24360681442946
 20
-527.2575340080709
 30
0.0
 10
-80.4715759882661
 20
-528.9829194779925
 30
0.0
 10
-82.15801661177366
 20
-530.1880302228661
 30
0.0
 10
-82.55630788513811
 20
-530.4918951572414
 30
0.0
  0
SPLINE
  5
F4
330
1F
100
AcDbEntity
  8
0
  6
Continuous
 62
     7
370
    25
100
AcDbSpline
210
0.0
220
0.0
230
1.0
 70
     8
 71
     3
 72
    11
 73
     7
 74
     0
 42
0.00000001
 43
0.00000001
 40
0.0239644173772097
 40
0.0239644173772097
 40
0.0239644173772097
 40
0.0239644173772097
 40
0.03125
 40
0.0625
 40
0.0937500000000001
 40
0.1010355825651322
 40
0.1010355825651322
 40
0.1010355825651322
 40
0.1010355825651322
 10
-70.77508300800008
 20
-531.2829339655408
 30
0.0
 10
-71.05418033899421
 20
-531.3252616670804
 30
0.0
 10
-72.52527870421355
 20
-531.5829248755831
 30
0.0
 10
-75.12528025278937
 20
-532.3716267227177
 30
0.0
 10
-77.52145540134622
 20
-533.6524090233097
 30
0.0
 10
-78.74387443150152
 20
-534.5104372496448
 30
0.0
 10
-78.97115624991117
 20
-534.6778586588039
 30
0.0
  0
SPLINE
  5
F8
330
1F
100
AcDbEntity
  8
0
  6
Continuous
 62
     7
370
    25
100
AcDbSpline
210
0.0
220
0.0
230
1.0
 70
     8
 71
     3
 72
    11
 73
     7
 74
     0
 42
0.00000001
 43
0.00000001
 40
0.8962835454168603
 40
0.8962835454168603
 40
0.8962835454168603
 40
0.8962835454168603
 40
0.9062499999999999
 40
0.9374999999999999
 40
0.9687499999999999
 40
0.9787164545617227
 40
0.9787164545617227
 40
0.9787164545617227
 40
0.9787164545617227
 10
-53.44369211526708
 20
-530.4918951569322
 30
0.0
 10
-53.84198338850288
 20
-530.1880302226683
 30
0.0
 10
-55.52842401188443
 20
-528.9829194779119
 30
0.0
 10
-58.75639318557042
 20
-527.2575340080708
 30
0.0
 10
-62.25894384259518
 20
-526.1950468820957
 30
0.0
 10
-64.3035794220651
 20
-525.854695260972
 30
0.0
 10
-64.80007883676437
 20
-525.7879257564389
 30
0.0
  0
SPLINE
  5
FC
330
1F
100
AcDbEntity
  8
0
  6
Continuous
 62
     7
370
    25
100
AcDbSpline
210
0.0
220
0.0
230
1.0
 70
     8
 71
     3
 72
    11
 73
     7
 74
     0
 42
0.00000001
 43
0.00000001
 40
0.8989644173970126
 40
0.8989644173970126
 40
0.8989644173970126
 40
0.8989644173970126
 40
0.9062500000000001
 40
0.9375
 40
0.96875
 40
0.9760355825431358
 40
0.9760355825431358
 40
0.9760355825431358
 40
0.9760355825431358
 10
-57.02884374654592
 20
-534.6778586614137
 30
0.0
 10
-57.25612556609671
 20
-534.5104372513307
 30
0.0
 10
-58.47854459735386
 20
-533.6524090240046
 30
0.0
 10
-60.87471974721052
 20
-532.3716267227177
 30
0.0
 10
-63.47472129281869
 20
-531.5829248764834
 30
0.0
 10
-64.94581965492408
 20
-531.3252616681457
 30
0.0
 10
-65.22491698284557
 20
-531.2829339669291
 30
0.0
  0
SPLINE
  5
100
330
1F
100
AcDbEntity
  8
0
  6
Continuous
 62
     7
370
    25
100
AcDbSpline
210
0.0
220
0.0
230
1.0
 70
     8
 71
     3
 72
    11
 73
     7
 74
     0
 42
0.00000001
 43
0.00000001
 40
0.7673971863557004
 40
0.7673971863557004
 40
0.7673971863557004
 40
0.7673971863557004
 40
0.78125
 40
0.8125
 40
0.8437499999999999
 40
0.8576028136911662
 40
0.8576028136911662
 40
0.8576028136911662
 40
0.8576028136911662
 10
-42.15527610487636
 20
-546.7371866953556
 30
0.0
 10
-42.23755616534657
 20
-545.9873402544881
 30
0.0
 10
-42.61153191693156
 20
-543.557591831612
 30
0.0
 10
-43.82428898530652
 20
-539.5596675624124
 30
0.0
 10
-45.79369960095679
 20
-535.8751594517497
 30
0.0
 10
-47.24735039921692
 20
-533.8926270735532
 30
0.0
 10
-47.71939111545806
 20
-533.3042247798002
 30
0.0
  0
SPLINE
  5
104
330
1F
100
AcDbEntity
  8
0
  6
Continuous
 62
     7
370
    25
100
AcDbSpline
210
0.0
220
0.0
230
1.0
 70
     8
 71
     3
 72
    11
 73
     7
 74
     0
 42
0.00000001
 43
0.00000001
 40
0.7654263143176002
 40
0.7654263143176002
 40
0.7654263143176002
 40
0.7654263143176002
 40
0.78125
 40
0.8125
 40
0.84375
 40
0.8595736856824001
 40
0.8595736856824001
 40
0.8595736856824001
 40
0.8595736856824001
 10
-35.65267115278928
 20
-546.4284098861255
 30
0.0
 10
-35.75690815476346
 20
-545.3563778816477
 30
0.0
 10
-36.22528423284989
 20
-542.1825925627079
 30
0.0
 10
-37.78036123163319
 20
-537.0561907168376
 30
0.0
 10
-40.30566924882839
 20
-532.3316717174284
 30
0.0
 10
-42.2186824689207
 20
-529.7562746954152
 30
0.0
 10
-42.90301687798938
 20
-528.9245269044536
 30
0.0
  0
SPLINE
  5
108
330
1F
100
AcDbEntity
  8
0
  6
Continuous
 62
     7
370
    25
100
AcDbSpline
210
0.0
220
0.0
230
1.0
 70
     8
 71
     3
 72
    11
 73
     7
 74
     0
 42
0.00000001
 43
0.00000001
 40
0.646283545416859
 40
0.646283545416859
 40
0.646283545416859
 40
0.646283545416859
 40
0.65625
 40
0.6874999999999999
 40
0.7187499999999999
 40
0.7287164545865218
 40
0.7287164545865218
 40
0.7287164545865218
 40
0.7287164545865218
 10
-48.9183202122213
 20
-564.1298828294441
 30
0.0
 10
-48.61445527795749
 20
-563.7315915562082
 30
0.0
 10
-47.40934453320097
 20
-562.0451509328266
 30
0.0
 10
-45.68395906335987
 20
-558.8171817591406
 30
0.0
 10
-44.62147193702111
 20
-555.3146311009172
 30
0.0
 10
-44.28112031585136
 20
-553.2699955201854
 30
0.0
 10
-44.21435081122949
 20
-552.7734961042403
 30
0.0
  0
SPLINE
  5
10C
330
1F
100
AcDbEntity
  8
0
  6
Continuous
 62
     7
370
    25
100
AcDbSpline
210
0.0
220
0.0
230
1.0
 70
     8
 71
     3
 72
    11
 73
     7
 74
     0
 42
0.00000001
 43
0.00000001
 40
0.6489644173970125
 40
0.6489644173970125
 40
0.6489644173970125
 40
0.6489644173970125
 40
0.6562500000000002
 40
0.6875000000000001
 40
0.7187500000000002
 40
0.726035582565134
 40
0.726035582565134
 40
0.726035582565134
 40
0.726035582565134
 10
-53.10428371670252
 20
-560.5447311981651
 30
0.0
 10
-52.93686230661955
 20
-560.3174493786142
 30
0.0
 10
-52.07883407929347
 20
-559.0950303473571
 30
0.0
 10
-50.79805177800652
 20
-556.6988551975004
 30
0.0
 10
-50.00934993152372
 20
-554.0988536510727
 30
0.0
 10
-49.75168672314044
 20
-552.6277552881073
 30
0.0
 10
-49.70935902183469
 20
-552.3486579593373
 30
0.0
  0
SPLINE
  5
110
330
1F
100
AcDbEntity
  8
0
  6
Continuous
 62
     7
370
    25
100
AcDbSpline
210
0.0
220
0.0
230
1.0
 70
     8
 71
     3
 72
    11
 73
     7
 74
     0
 42
0.00000001
 43
0.00000001
 40
0.5212835454168594
 40
0.5212835454168594
 40
0.5212835454168594
 40
0.5212835454168594
 40
0.53125
 40
0.5625
 40
0.5937499999999999
 40
0.6037164545865219
 40
0.6037164545865219
 40
0.6037164545865219
 40
0.6037164545865219
 10
-64.80007883996531
 20
-573.3592241334136
 30
0.0
 10
-64.30357942419008
 20
-573.2924546288037
 30
0.0
 10
-62.25894384363037
 20
-572.9521030076403
 30
0.0
 10
-58.75639318557044
 20
-571.8896158813511
 30
0.0
 10
-55.52842401173374
 20
-570.1642304114295
 30
0.0
 10
-53.84198338822607
 20
-568.9591196665558
 30
0.0
 10
-53.44369211486154
 20
-568.6552547321804
 30
0.0
  0
SPLINE
  5
114
330
1F
100
AcDbEntity
  8
0
  6
Continuous
 62
     7
370
    25
100
AcDbSpline
210
0.0
220
0.0
230
1.0
 70
     8
 71
     3
 72
    11
 73
     7
 74
     0
 42
0.00000001
 43
0.00000001
 40
0.5239644173970115
 40
0.5239644173970115
 40
0.5239644173970115
 40
0.5239644173970115
 40
0.5312500000000002
 40
0.5625000000000002
 40
0.5937500000000002
 40
0.6010355825651317
 40
0.6010355825651317
 40
0.6010355825651317
 40
0.6010355825651317
 10
-65.22491698972415
 20
-567.864215923536
 30
0.0
 10
-64.94581965949384
 20
-567.8218882220767
 30
0.0
 10
-63.47472129504862
 20
-567.564225013615
 30
0.0
 10
-60.87471974721053
 20
-566.7755231667044
 30
0.0
 10
-58.47854459865371
 20
-565.4947408661122
 30
0.0
 10
-57.25612556849843
 20
-564.6367126397772
 30
0.0
 10
-57.02884375008879
 20
-564.4692912306182
 30
0.0
  0
SPLINE
  5
118
330
1F
100
AcDbEntity
  8
0
  6
Continuous
 62
     7
370
    25
100
AcDbSpline
210
0.0
220
0.0
230
1.0
 70
     8
 71
     3
 72
    11
 73
     7
 74
     0
 42
0.00000001
 43
0.00000001
 40
0.3962835454168572
 40
0.3962835454168572
 40
0.3962835454168572
 40
0.3962835454168572
 40
0.40625
 40
0.4374999999999999
 40
0.4687499999999999
 40
0.4787164545865216
 40
0.4787164545865216
 40
0.4787164545865216
 40
0.4787164545865216
 10
-82.55630788473322
 20
-568.6552547324894
 30
0.0
 10
-82.15801661149729
 20
-568.9591196667534
 30
0.0
 10
-80.47157598811562
 20
-570.16423041151
 30
0.0
 10
-77.24360681442944
 20
-571.8896158813511
 30
0.0
 10
-73.7410561562061
 20
-572.9521030076899
 30
0.0
 10
-71.69642057547439
 20
-573.2924546288596
 30
0.0
 10
-71.19992115952932
 20
-573.3592241334813
 30
0.0
  0
SPLINE
  5
11C
330
1F
100
AcDbEntity
  8
0
  6
Continuous
 62
     7
370
    25
100
AcDbSpline
210
0.0
220
0.0
230
1.0
 70
     8
 71
     3
 72
    11
 73
     7
 74
     0
 42
0.00000001
 43
0.00000001
 40
0.3989644173970082
 40
0.3989644173970082
 40
0.3989644173970082
 40
0.3989644173970082
 40
0.4062500000000001
 40
0.4375000000000001
 40
0.4687500000000002
 40
0.4760355825651329
 40
0.4760355825651329
 40
0.4760355825651329
 40
0.4760355825651329
 10
-78.97115625345437
 20
-564.469291228008
 30
0.0
 10
-78.74387443390344
 20
-564.6367126380911
 30
0.0
 10
-77.52145540264617
 20
-565.4947408654174
 30
0.0
 10
-75.12528025278938
 20
-566.7755231667044
 30
0.0
 10
-72.52527870636169
 20
-567.5642250131872
 30
0.0
 10
-71.05418034339638
 20
-567.8218882215705
 30
0.0
 10
-70.77508301462635
 20
-567.8642159228762
 30
0.0
  0
SPLINE
  5
120
330
1F
100
AcDbEntity
  8
0
  6
Continuous
 62
     7
370
    25
100
AcDbSpline
210
0.0
220
0.0
230
1.0
 70
     8
 71
     3
 72
    11
 73
     7
 74
     0
 42
0.00000001
 43
0.00000001
 40
0.2673971863556994
 40
0.2673971863556994
 40
0.2673971863556994
 40
0.2673971863556994
 40
0.2812499999999999
 40
0.3125
 40
0.3437499999999999
 40
0.3576028136911633
 40
0.3576028136911633
 40
0.3576028136911633
 40
0.3576028136911633
 10
-93.84472389512355
 20
-552.4099631940662
 30
0.0
 10
-93.76244383465334
 20
-553.1598096349338
 30
0.0
 10
-93.38846808306833
 20
-555.5895580578101
 30
0.0
 10
-92.17571101469338
 20
-559.5874823270096
 30
0.0
 10
-90.20630039904319
 20
-563.2719904376722
 30
0.0
 10
-88.75264960078316
 20
-565.2545228158688
 30
0.0
 10
-88.28060888454215
 20
-565.8429251096215
 30
0.0
  0
SPLINE
  5
124
330
1F
100
AcDbEntity
  8
0
  6
Continuous
 62
     7
370
    25
100
AcDbSpline
210
0.0
220
0.0
230
1.0
 70
     8
 71
     3
 72
    11
 73
     7
 74
     0
 42
0.00000001
 43
0.00000001
 40
0.2654263143176004
 40
0.2654263143176004
 40
0.2654263143176004
 40
0.2654263143176004
 40
0.2812499999999999
 40
0.3125000000000001
 40
0.34375
 40
0.3595736856823999
 40
0.3595736856823999
 40
0.3595736856823999
 40
0.3595736856823999
 10
-100.3473288472106
 20
-552.7187400032963
 30
0.0
 10
-100.2430918452364
 20
-553.7907720077739
 30
0.0
 10
-99.77471576715001
 20
-556.9645573267138
 30
0.0
 10
-98.21963876836674
 20
-562.090959172584
 30
0.0
 10
-95.69433075117149
 20
-566.815478171993
 30
0.0
 10
-93.78131753107921
 20
-569.3908751940063
 30
0.0
 10
-93.09698312201053
 20
-570.2226229849681
 30
0.0
  0
SPLINE
  5
128
330
1F
100
AcDbEntity
  8
0
  6
Continuous
 62
     7
370
    25
100
AcDbSpline
210
0.0
220
0.0
230
1.0
 70
     8
 71
     3
 72
    11
 73
     7
 74
     0
 42
0.00000001
 43
0.00000001
 40
0.1462835454168566
 40
0.1462835454168566
 40
0.1462835454168566
 40
0.1462835454168566
 40
0.15625
 40
0.1874999999999999
 40
0.2187499999999999
 40
0.2287164545865216
 40
0.2287164545865216
 40
0.2287164545865216
 40
0.2287164545865216
 10
-87.08167978777836
 20
-535.0172670599776
 30
0.0
 10
-87.38554472204224
 20
-535.4155583332137
 30
0.0
 10
-88.59065546679886
 20
-537.1019989565953
 30
0.0
 10
-90.31604093664001
 20
-540.3299681302815
 30
0.0
 10
-91.37852806297877
 20
-543.8325187885048
 30
0.0
 10
-91.71887968414852
 20
-545.8771543692367
 30
0.0
 10
-91.78564918877038
 20
-546.3736537851818
 30
0.0
  0
SPLINE
  5
12C
330
1F
100
AcDbEntity
  8
0
  6
Continuous
 62
     7
370
    25
100
AcDbSpline
210
0.0
220
0.0
230
1.0
 70
     8
 71
     3
 72
    11
 73
     7
 74
     0
 42
0.00000001
 43
0.00000001
 40
0.1489644173970069
 40
0.1489644173970069
 40
0.1489644173970069
 40
0.1489644173970069
 40
0.15625
 40
0.1874999999999999
 40
0.21875
 40
0.226035582565134
 40
0.226035582565134
 40
0.226035582565134
 40
0.226035582565134
 10
-82.895716283297
 20
-538.6024186912564
 30
0.0
 10
-83.0631376933801
 20
-538.8297005108074
 30
0.0
 10
-83.92116592070634
 20
-540.0521195420647
 30
0.0
 10
-85.20194822199336
 20
-542.4482946919215
 30
0.0
 10
-85.99065006847616
 20
-545.0482962383493
 30
0.0
 10
-86.24831327685945
 20
-546.5193946013147
 30
0.0
 10
-86.29064097816519
 20
-546.7984919300848
 30
0.0
  0
SPLINE
  5
12E
330
1F
100
AcDbEntity
  8
0
  6
Continuous
 62
     7
370
    25
100
AcDbSpline
210
0.0
220
0.0
230
1.0
 70
     8
 71
     3
 72
    11
 73
     7
 74
     0
 42
0.00000001
 43
0.00000001
 40
0.8904263143176006
 40
0.8904263143176006
 40
0.8904263143176006
 40
0.8904263143176006
 40
0.90625
 40
0.9374999999999999
 40
0.9687499999999999
 40
0.9845736856823998
 40
0.9845736856823998
 40
0.9845736856823998
 40
0.9845736856823998
 10
-47.35095195974284
 20
-524.4765918227001
 30
0.0
 10
-48.18269975070449
 20
-523.7922574136315
 30
0.0
 10
-50.75809677271768
 20
-521.8792441935394
 30
0.0
 10
-55.48261577212666
 20
-519.3539361763442
 30
0.0
 10
-60.60901761799693
 20
-517.7988591775608
 30
0.0
 10
-63.78280293693686
 20
-517.3304830994743
 30
0.0
 10
-64.85483494141452
 20
-517.2262460975004
 30
0.0
  0
SPLINE
  5
132
330
1F
100
AcDbEntity
  8
0
  6
Continuous
 62
     7
370
    25
100
AcDbSpline
210
0.0
220
0.0
230
1.0
 70
     8
 71
     3
 72
    11
 73
     7
 74
     0
 42
0.00000001
 43
0.00000001
 40
0.8923971863556999
 40
0.8923971863556999
 40
0.8923971863556999
 40
0.8923971863556999
 40
0.90625
 40
0.9375
 40
0.9687499999999999
 40
0.982602813670819
 40
0.982602813670819
 40
0.982602813670819
 40
0.982602813670819
 10
-51.73064984106097
 20
-529.2929660553782
 30
0.0
 10
-52.31905213296199
 20
-528.820925340907
 30
0.0
 10
-54.30158450930018
 20
-527.367274544459
 30
0.0
 10
-57.98609261770127
 20
-525.3978639300175
 30
0.0
 10
-61.98401688828942
 20
-524.1851068612214
 30
0.0
 10
-64.41376531263433
 20
-523.8111311096178
 30
0.0
 10
-65.16361175495108
 20
-523.728851049115
 30
0.0
  0
SPLINE
  5
136
330
1F
100
AcDbEntity
  8
0
  6
Continuous
 62
     7
370
    25
100
AcDbSpline
210
0.0
220
0.0
230
1.0
 70
     8
 71
     3
 72
    11
 73
     7
 74
     0
 42
0.00000001
 43
0.00000001
 40
0.3904263143175991
 40
0.3904263143175991
 40
0.3904263143175991
 40
0.3904263143175991
 40
0.40625
 40
0.4374999999999999
 40
0.4687499999999999
 40
0.4845736856823996
 40
0.4845736856823996
 40
0.4845736856823996
 40
0.4845736856823996
 10
-88.64904804025727
 20
-574.6705580667212
 30
0.0
 10
-87.81730024929554
 20
-575.35489247579
 30
0.0
 10
-85.24190322728228
 20
-577.2679056958825
 30
0.0
 10
-80.51738422787324
 20
-579.7932137130776
 30
0.0
 10
-75.39098238200296
 20
-581.3482907118608
 30
0.0
 10
-72.21719706306303
 20
-581.8166667899474
 30
0.0
 10
-71.14516505858536
 20
-581.9209037919217
 30
0.0
  0
SPLINE
  5
13A
330
1F
100
AcDbEntity
  8
0
  6
Continuous
 62
     7
370
    25
100
AcDbSpline
210
0.0
220
0.0
230
1.0
 70
     8
 71
     3
 72
    11
 73
     7
 74
     0
 42
0.00000001
 43
0.00000001
 40
0.392397186355697
 40
0.392397186355697
 40
0.392397186355697
 40
0.392397186355697
 40
0.4062500000000001
 40
0.4375000000000001
 40
0.4687500000000001
 40
0.4826028136911646
 40
0.4826028136911646
 40
0.4826028136911646
 40
0.4826028136911646
 10
-84.26935015893926
 20
-569.8541838340436
 30
0.0
 10
-83.68094786703814
 20
-570.3262245485149
 30
0.0
 10
-81.69841549069984
 20
-571.779875344963
 30
0.0
 10
-78.0139073822986
 20
-573.7492859594045
 30
0.0
 10
-74.01598311064517
 20
-574.9620430285237
 30
0.0
 10
-71.58623468517351
 20
-575.3360187801416
 30
0.0
 10
-70.83638824174496
 20
-575.4182988406695
 30
0.0
  0
SPLINE
  5
13E
330
1F
100
AcDbEntity
  8
0
  6
Continuous
 62
     7
370
    25
100
AcDbSpline
210
0.0
220
0.0
230
1.0
 70
     8
 71
     3
 72
    11
 73
     7
 74
     0
 42
0.00000001
 43
0.00000001
 40
0.5154263143176
 40
0.5154263143176
 40
0.5154263143176
 40
0.5154263143176
 40
0.53125
 40
0.5624999999999999
 40
0.5937499999999999
 40
0.6095736856823991
 40
0.6095736856823991
 40
0.6095736856823991
 40
0.6095736856823991
 10
-64.85483494141455
 20
-581.9209037919215
 30
0.0
 10
-63.78280293693687
 20
-581.8166667899474
 30
0.0
 10
-60.60901761799693
 20
-581.3482907118608
 30
0.0
 10
-55.48261577212664
 20
-579.7932137130776
 30
0.0
 10
-50.75809677271769
 20
-577.2679056958825
 30
0.0
 10
-48.18269975070451
 20
-575.3548924757902
 30
0.0
 10
-47.35095195974288
 20
-574.6705580667215
 30
0.0
  0
SPLINE
  5
142
330
1F
100
AcDbEntity
  8
0
  6
Continuous
 62
     7
370
    25
100
AcDbSpline
210
0.0
220
0.0
230
1.0
 70
     8
 71
     3
 72
    11
 73
     7
 74
     0
 42
0.00000001
 43
0.00000001
 40
0.5173971863556991
 40
0.5173971863556991
 40
0.5173971863556991
 40
0.5173971863556991
 40
0.5312500000000001
 40
0.5625000000000001
 40
0.59375
 40
0.6076028136911658
 40
0.6076028136911658
 40
0.6076028136911658
 40
0.6076028136911658
 10
-65.16361175064483
 20
-575.4182988398346
 30
0.0
 10
-64.41376530977719
 20
-575.3360187793644
 30
0.0
 10
-61.9840168869009
 20
-574.9620430277794
 30
0.0
 10
-57.9860926177013
 20
-573.7492859594045
 30
0.0
 10
-54.3015845070386
 20
-571.7798753437542
 30
0.0
 10
-52.31905212884195
 20
-570.3262245454941
 30
0.0
 10
-51.73064983508909
 20
-569.854183829253
 30
0.0
  0
SPLINE
  5
146
330
1F
100
AcDbEntity
  8
0
  6
Continuous
 62
     7
370
    25
100
AcDbSpline
210
0.0
220
0.0
230
1.0
 70
     8
 71
     3
 72
    11
 73
     7
 74
     0
 42
0.00000001
 43
0.00000001
 40
0.0154263143176005
 40
0.0154263143176005
 40
0.0154263143176005
 40
0.0154263143176005
 40
0.03125
 40
0.0625
 40
0.09375
 40
0.1095736856823994
 40
0.1095736856823994
 40
0.1095736856823994
 40
0.1095736856823994
 10
-71.14516505858539
 20
-517.2262460975003
 30
0.0
 10
-72.21719706306305
 20
-517.3304830994743
 30
0.0
 10
-75.390982382003
 20
-517.7988591775608
 30
0.0
 10
-80.51738422787321
 20
-519.3539361763442
 30
0.0
 10
-85.24190322728222
 20
-521.8792441935392
 30
0.0
 10
-87.8173002492954
 20
-523.7922574136314
 30
0.0
 10
-88.64904804025706
 20
-524.4765918227001
 30
0.0
  0
SPLINE
  5
14A
330
1F
100
AcDbEntity
  8
0
  6
Continuous
 62
     7
370
    25
100
AcDbSpline
210
0.0
220
0.0
230
1.0
 70
     8
 71
     3
 72
    11
 73
     7
 74
     0
 42
0.00000001
 43
0.00000001
 40
0.0173971863350293
 40
0.0173971863350293
 40
0.0173971863350293
 40
0.0173971863350293
 40
0.03125
 40
0.0625
 40
0.09375
 40
0.1076028136911643
 40
0.1076028136911643
 40
0.1076028136911643
 40
0.1076028136911643
 10
-70.83638824599855
 20
-523.7288510492191
 30
0.0
 10
-71.58623468799573
 20
-523.8111311097148
 30
0.0
 10
-74.01598311201673
 20
-524.1851068613141
 30
0.0
 10
-78.01390738229856
 20
-525.3978639300175
 30
0.0
 10
-81.69841549296122
 20
-527.3672745456677
 30
0.0
 10
-83.68094787115781
 20
-528.8209253439278
 30
0.0
 10
-84.2693501649106
 20
-529.2929660601689
 30
0.0
  0
SPLINE
  5
14E
330
1F
100
AcDbEntity
  8
0
  6
Continuous
 62
     7
370
    25
100
AcDbSpline
210
0.0
220
0.0
230
1.0
 70
     8
 71
     3
 72
    11
 73
     7
 74
     0
 42
0.00000001
 43
0.00000001
 40
0.7739644173970134
 40
0.7739644173970134
 40
0.7739644173970134
 40
0.7739644173970134
 40
0.7812500000000002
 40
0.8125000000000002
 40
0.84375
 40
0.8510355825651332
 40
0.8510355825651332
 40
0.8510355825651332
 40
0.8510355825651332
 10
-49.70935902117493
 20
-546.798491934435
 30
0.0
 10
-49.75168672263423
 20
-546.5193946042048
 30
0.0
 10
-50.0093499310959
 20
-545.0482962397596
 30
0.0
 10
-50.79805177800655
 20
-542.4482946919215
 30
0.0
 10
-52.07883407859873
 20
-540.0521195433647
 30
0.0
 10
-52.93686230493383
 20
-538.8297005132093
 30
0.0
 10
-53.10428371409286
 20
-538.6024186947997
 30
0.0
  0
SPLINE
  5
152
330
1F
100
AcDbEntity
  8
0
  6
Continuous
 62
     7
370
    25
100
AcDbSpline
210
0.0
220
0.0
230
1.0
 70
     8
 71
     3
 72
    11
 73
     7
 74
     0
 42
0.00000001
 43
0.00000001
 40
0.7712835454168616
 40
0.7712835454168616
 40
0.7712835454168616
 40
0.7712835454168616
 40
0.78125
 40
0.8125
 40
0.84375
 40
0.8537164545865233
 40
0.8537164545865233
 40
0.8537164545865233
 40
0.8537164545865233
 10
-44.21435081129749
 20
-546.3736537846761
 30
0.0
 10
-44.28112031590724
 20
-545.877154368901
 30
0.0
 10
-44.62147193707072
 20
-543.8325187883413
 30
0.0
 10
-45.6839590633599
 20
-540.3299681302815
 30
0.0
 10
-47.40934453328148
 20
-537.1019989564448
 30
0.0
 10
-48.61445527815528
 20
-535.415558332937
 30
0.0
 10
-48.91832021253067
 20
-535.0172670595725
 30
0.0
  0
SPLINE
  5
156
330
1F
100
AcDbEntity
  8
0
  6
Continuous
 62
     7
370
    25
100
AcDbSpline
210
0.0
220
0.0
230
1.0
 70
     8
 71
     3
 72
    11
 73
     7
 74
     0
 42
0.00000001
 43
0.00000001
 40
0.6404263143175993
 40
0.6404263143175993
 40
0.6404263143175993
 40
0.6404263143175993
 40
0.65625
 40
0.6874999999999999
 40
0.71875
 40
0.7345736856823994
 40
0.7345736856823994
 40
0.7345736856823994
 40
0.7345736856823994
 10
-42.90301687798944
 20
-570.2226229849681
 30
0.0
 10
-42.21868246892073
 20
-569.3908751940064
 30
0.0
 10
-40.3056692488284
 20
-566.8154781719932
 30
0.0
 10
-37.78036123163318
 20
-562.0909591725842
 30
0.0
 10
-36.22528423284989
 20
-556.9645573267139
 30
0.0
 10
-35.75690815476347
 20
-553.790772007774
 30
0.0
 10
-35.65267115278929
 20
-552.7187400032963
 30
0.0
  0
SPLINE
  5
15A
330
1F
100
AcDbEntity
  8
0
  6
Continuous
 62
     7
370
    25
100
AcDbSpline
210
0.0
220
0.0
230
1.0
 70
     8
 71
     3
 72
    11
 73
     7
 74
     0
 42
0.00000001
 43
0.00000001
 40
0.6423971863556982
 40
0.6423971863556982
 40
0.6423971863556982
 40
0.6423971863556982
 40
0.6562500000000001
 40
0.6875
 40
0.7187500000000001
 40
0.7326028136911666
 40
0.7326028136911666
 40
0.7326028136911666
 40
0.7326028136911666
 10
-47.71939111066728
 20
-565.8429251036501
 30
0.0
 10
-47.24735039619605
 20
-565.2545228117491
 30
0.0
 10
-45.79369959974797
 20
-563.2719904354109
 30
0.0
 10
-43.82428898530654
 20
-559.5874823270096
 30
0.0
 10
-42.61153191618713
 20
-555.5895580553561
 30
0.0
 10
-42.23755616456935
 20
-553.1598096298843
 30
0.0
 10
-42.15527610404124
 20
-552.4099631864557
 30
0.0
  0
SPLINE
  5
15E
330
1F
100
AcDbEntity
  8
0
  6
Continuous
 62
     7
370
    25
100
AcDbSpline
210
0.0
220
0.0
230
1.0
 70
     8
 71
     3
 72
    11
 73
     7
 74
     0
 42
0.00000001
 43
0.00000001
 40
0.1404263143175983
 40
0.1404263143175983
 40
0.1404263143175983
 40
0.1404263143175983
 40
0.15625
 40
0.1875
 40
0.2187499999999999
 40
0.2345736856823994
 40
0.2345736856823994
 40
0.2345736856823994
 40
0.2345736856823994
 10
-93.09698312201031
 20
-528.9245269044534
 30
0.0
 10
-93.78131753107907
 20
-529.7562746954152
 30
0.0
 10
-95.69433075117145
 20
-532.3316717174284
 30
0.0
 10
-98.21963876836668
 20
-537.0561907168376
 30
0.0
 10
-99.77471576715
 20
-542.1825925627079
 30
0.0
 10
-100.2430918452364
 20
-545.3563778816477
 30
0.0
 10
-100.3473288472106
 20
-546.4284098861255
 30
0.0
  0
SPLINE
  5
162
330
1F
100
AcDbEntity
  8
0
  6
Continuous
 62
     7
370
    25
100
AcDbSpline
210
0.0
220
0.0
230
1.0
 70
     8
 71
     3
 72
    11
 73
     7
 74
     0
 42
0.00000001
 43
0.00000001
 40
0.1423971863556972
 40
0.1423971863556972
 40
0.1423971863556972
 40
0.1423971863556972
 40
0.1562499999999999
 40
0.1875
 40
0.2187500000000001
 40
0.232602813691163
 40
0.232602813691163
 40
0.232602813691163
 40
0.232602813691163
 10
-88.28060888933254
 20
-533.3042247857718
 30
0.0
 10
-88.7526496038038
 20
-533.892627077673
 30
0.0
 10
-90.20630040025192
 20
-535.875159454011
 30
0.0
 10
-92.17571101469335
 20
-539.5596675624124
 30
0.0
 10
-93.38846808381271
 20
-543.5575918340658
 30
0.0
 10
-93.7624438354305
 20
-545.9873402595373
 30
0.0
 10
-93.84472389595861
 20
-546.7371867029658
 30
0.0
  0
SPLINE
  5
166
330
1F
100
AcDbEntity
  8
0
  6
Continuous
 62
     7
370
    25
100
AcDbSpline
210
0.0
220
0.0
230
1.0
 70
     8
 71
     3
 72
    11
 73
     7
 74
     0
 42
0.00000001
 43
0.00000001
 40
0.2739644173970101
 40
0.2739644173970101
 40
0.2739644173970101
 40
0.2739644173970101
 40
0.2812500000000001
 40
0.3125000000000002
 40
0.3437500000000002
 40
0.3510355825651301
 40
0.3510355825651301
 40
0.3510355825651301
 40
0.3510355825651301
 10
-86.29064097882502
 20
-552.3486579549867
 30
0.0
 10
-86.24831327736571
 20
-552.6277552852171
 30
0.0
 10
-85.990650068904
 20
-554.0988536496623
 30
0.0
 10
-85.20194822199333
 20
-556.6988551975004
 30
0.0
 10
-83.92116592140121
 20
-559.0950303460571
 30
0.0
 10
-83.06313769506617
 20
-560.3174493762123
 30
0.0
 10
-82.89571628590724
 20
-560.5447311946219
 30
0.0
  0
SPLINE
  5
16A
330
1F
100
AcDbEntity
  8
0
  6
Continuous
 62
     7
370
    25
100
AcDbSpline
210
0.0
220
0.0
230
1.0
 70
     8
 71
     3
 72
    11
 73
     7
 74
     0
 42
0.00000001
 43
0.00000001
 40
0.2712835454168595
 40
0.2712835454168595
 40
0.2712835454168595
 40
0.2712835454168595
 40
0.2812500000000001
 40
0.3125000000000001
 40
0.34375
 40
0.3537164545865197
 40
0.3537164545865197
 40
0.3537164545865197
 40
0.3537164545865197
 10
-91.78564918870241
 20
-552.7734961047457
 30
0.0
 10
-91.71887968409264
 20
-553.2699955205209
 30
0.0
 10
-91.37852806292918
 20
-555.3146311010806
 30
0.0
 10
-90.31604093664004
 20
-558.8171817591406
 30
0.0
 10
-88.59065546671849
 20
-562.0451509329771
 30
0.0
 10
-87.3855447218448
 20
-563.7315915564847
 30
0.0
 10
-87.08167978746953
 20
-564.1298828298491
 30
0.0
  0
SPLINE
  5
16E
330
1F
100
AcDbEntity
  8
0
  6
Continuous
 62
     7
370
    25
100
AcDbSpline
210
0.0
220
0.0
230
1.0
 70
     8
 71
     3
 72
     9
 73
     5
 74
     0
 42
0.00000001
 43
0.00000001
 40
0.0320473549086041
 40
0.0320473549086041
 40
0.0320473549086041
 40
0.0320473549086041
 40
0.0624999999999999
 40
0.0929526450870849
 40
0.0929526450870849
 40
0.0929526450870849
 40
0.0929526450870849
 10
-71.30002424246464
 20
-533.4069482399728
 30
0.0
 10
-72.33111805432961
 20
-533.6174370998091
 30
0.0
 10
-74.35292907806932
 20
-534.2362474032523
 30
0.0
 10
-76.22013032507702
 20
-535.2283187265572
 30
0.0
 10
-77.09806185153224
 20
-535.808574052706
 30
0.0
  0
SPLINE
  5
172
330
1F
100
AcDbEntity
  8
0
  6
Continuous
 62
     7
370
    25
100
AcDbSpline
210
0.0
220
0.0
230
1.0
 70
     8
 71
     3
 72
     9
 73
     5
 74
     0
 42
0.00000001
 43
0.00000001
 40
0.0420038438231491
 40
0.0420038438231491
 40
0.0420038438231491
 40
0.0420038438231491
 40
0.0625
 40
0.0829961562123157
 40
0.0829961562123157
 40
0.0829961562123157
 40
0.0829961562123157
 10
-70.60863805257257
 20
-539.9198517957926
 30
0.0
 10
-71.02304069238569
 20
-540.0318520136128
 30
0.0
 10
-71.83744609411652
 20
-540.30916054136
 30
0.0
 10
-72.60940441672962
 20
-540.6889453831966
 30
0.0
 10
-72.98162744759462
 20
-540.9027761868878
 30
0.0
  0
SPLINE
  5
178
330
1F
100
AcDbEntity
  8
0
  6
Continuous
 62
     7
370
    25
100
AcDbSpline
210
0.0
220
0.0
230
1.0
 70
     8
 71
     3
 72
     9
 73
     5
 74
     0
 42
0.00000001
 43
0.00000001
 40
0.9170038438231513
 40
0.9170038438231513
 40
0.9170038438231513
 40
0.9170038438231513
 40
0.9374999999999999
 40
0.9579961562123199
 40
0.9579961562123199
 40
0.9579961562123199
 40
0.9579961562123199
 10
-63.0183725543376
 20
-540.9027761857778
 30
0.0
 10
-63.39059558460611
 20
-540.6889453825394
 30
0.0
 10
-64.16255390725595
 20
-540.3091605407915
 30
0.0
 10
-64.97695930902357
 20
-540.0318520131328
 30
0.0
 10
-65.39136194957874
 20
-539.9198517952111
 30
0.0
  0
SPLINE
  5
17C
330
1F
100
AcDbEntity
  8
0
  6
Continuous
 62
     7
370
    25
100
AcDbSpline
210
0.0
220
0.0
230
1.0
 70
     8
 71
     3
 72
     9
 73
     5
 74
     0
 42
0.00000001
 43
0.00000001
 40
0.9070473549086059
 40
0.9070473549086059
 40
0.9070473549086059
 40
0.9070473549086059
 40
0.9374999999999999
 40
0.9679526450870878
 40
0.9679526450870878
 40
0.9679526450870878
 40
0.9679526450870878
 10
-58.901938148095
 20
-535.8085740529524
 30
0.0
 10
-59.77986967465866
 20
-535.2283187266976
 30
0.0
 10
-61.64707092165546
 20
-534.2362474033663
 30
0.0
 10
-63.66888194538426
 20
-533.6174370998967
 30
0.0
 10
-64.69997575709768
 20
-533.4069482400621
 30
0.0
  0
SPLINE
  5
180
330
1F
100
AcDbEntity
  8
0
  6
Continuous
 62
     7
370
    25
100
AcDbSpline
210
0.0
220
0.0
230
1.0
 70
     8
 71
     3
 72
     9
 73
     5
 74
     0
 42
0.00000001
 43
0.00000001
 40
0.79200384382315
 40
0.79200384382315
 40
0.79200384382315
 40
0.79200384382315
 40
0.8125000000000002
 40
0.8329961562123224
 40
0.8329961562123224
 40
0.8329961562123224
 40
0.8329961562123224
 10
-58.34627685108144
 20
-546.9649368921383
 30
0.0
 10
-58.45827706890173
 20
-546.5505342523253
 30
0.0
 10
-58.73558559664905
 20
-545.7361288505942
 30
0.0
 10
-59.11537043848565
 20
-544.9641705279811
 30
0.0
 10
-59.32920124217693
 20
-544.5919474971159
 30
0.0
  0
SPLINE
  5
184
330
1F
100
AcDbEntity
  8
0
  6
Continuous
 62
     7
370
    25
100
AcDbSpline
210
0.0
220
0.0
230
1.0
 70
     8
 71
     3
 72
     9
 73
     5
 74
     0
 42
0.00000001
 43
0.00000001
 40
0.7820473549086069
 40
0.7820473549086069
 40
0.7820473549086069
 40
0.7820473549086069
 40
0.8125
 40
0.8429526450870863
 40
0.8429526450870863
 40
0.8429526450870863
 40
0.8429526450870863
 10
-51.83337329526184
 20
-546.2735507022459
 30
0.0
 10
-52.0438621550982
 20
-545.242456890381
 30
0.0
 10
-52.6626724585413
 20
-543.2206458666417
 30
0.0
 10
-53.6547437818462
 20
-541.3534446196339
 30
0.0
 10
-54.23499910799492
 20
-540.4755130931787
 30
0.0
  0
SPLINE
  5
188
330
1F
100
AcDbEntity
  8
0
  6
Continuous
 62
     7
370
    25
100
AcDbSpline
210
0.0
220
0.0
230
1.0
 70
     8
 71
     3
 72
     9
 73
     5
 74
     0
 42
0.00000001
 43
0.00000001
 40
0.6670038438231481
 40
0.6670038438231481
 40
0.6670038438231481
 40
0.6670038438231481
 40
0.6874999999999999
 40
0.7079961562123209
 40
0.7079961562123209
 40
0.7079961562123209
 40
0.7079961562123209
 10
-59.32920124106676
 20
-554.5552023903734
 30
0.0
 10
-59.11537043782838
 20
-554.1829793601048
 30
0.0
 10
-58.73558559608043
 20
-553.4110210374549
 30
0.0
 10
-58.4582770684218
 20
-552.5966156356873
 30
0.0
 10
-58.34627685049995
 20
-552.1822129951322
 30
0.0
  0
SPLINE
  5
18C
330
1F
100
AcDbEntity
  8
0
  6
Continuous
 62
     7
370
    25
100
AcDbSpline
210
0.0
220
0.0
230
1.0
 70
     8
 71
     3
 72
     9
 73
     5
 74
     0
 42
0.00000001
 43
0.00000001
 40
0.6570473549086073
 40
0.6570473549086073
 40
0.6570473549086073
 40
0.6570473549086073
 40
0.6874999999999998
 40
0.717952645087088
 40
0.717952645087088
 40
0.717952645087088
 40
0.717952645087088
 10
-54.23499910824111
 20
-558.6716367966159
 30
0.0
 10
-53.65474378198648
 20
-557.7937052700521
 30
0.0
 10
-52.66267245865514
 20
-555.9265040230555
 30
0.0
 10
-52.04386215518567
 20
-553.9046929993267
 30
0.0
 10
-51.83337329535112
 20
-552.8735991876133
 30
0.0
  0
SPLINE
  5
190
330
1F
100
AcDbEntity
  8
0
  6
Continuous
 62
     7
370
    25
100
AcDbSpline
210
0.0
220
0.0
230
1.0
 70
     8
 71
     3
 72
     9
 73
     5
 74
     0
 42
0.00000001
 43
0.00000001
 40
0.5420038438231486
 40
0.5420038438231486
 40
0.5420038438231486
 40
0.5420038438231486
 40
0.5625
 40
0.5829961562123195
 40
0.5829961562123195
 40
0.5829961562123195
 40
0.5829961562123195
 10
-65.39136194742738
 20
-559.2272980936294
 30
0.0
 10
-64.97695930761427
 20
-559.1152978758092
 30
0.0
 10
-64.16255390588333
 20
-558.8379893480619
 30
0.0
 10
-63.39059558327016
 20
-558.4582045062253
 30
0.0
 10
-63.0183725524051
 20
-558.2443737025341
 30
0.0
  0
SPLINE
  5
194
330
1F
100
AcDbEntity
  8
0
  6
Continuous
 62
     7
370
    25
100
AcDbSpline
210
0.0
220
0.0
230
1.0
 70
     8
 71
     3
 72
     9
 73
     5
 74
     0
 42
0.00000001
 43
0.00000001
 40
0.5320473549086048
 40
0.5320473549086048
 40
0.5320473549086048
 40
0.5320473549086048
 40
0.5624999999999999
 40
0.5929526450870884
 40
0.5929526450870884
 40
0.5929526450870884
 40
0.5929526450870884
 10
-64.69997575753519
 20
-565.7402016494491
 30
0.0
 10
-63.66888194567025
 20
-565.5297127896127
 30
0.0
 10
-61.64707092193045
 20
-564.9109024861696
 30
0.0
 10
-59.77986967492266
 20
-563.9188311628646
 30
0.0
 10
-58.90193814846737
 20
-563.3385758367159
 30
0.0
  0
SPLINE
  5
198
330
1F
100
AcDbEntity
  8
0
  6
Continuous
 62
     7
370
    25
100
AcDbSpline
210
0.0
220
0.0
230
1.0
 70
     8
 71
     3
 72
     9
 73
     5
 74
     0
 42
0.00000001
 43
0.00000001
 40
0.4170038438231443
 40
0.4170038438231443
 40
0.4170038438231443
 40
0.4170038438231443
 40
0.4375
 40
0.4579961562123194
 40
0.4579961562123194
 40
0.4579961562123194
 40
0.4579961562123194
 10
-72.9816274456627
 20
-558.2443737036441
 30
0.0
 10
-72.60940441539407
 20
-558.4582045068825
 30
0.0
 10
-71.83744609274409
 20
-558.8379893486303
 30
0.0
 10
-71.02304069097634
 20
-559.1152978762891
 30
0.0
 10
-70.60863805042119
 20
-559.227298094211
 30
0.0
  0
SPLINE
  5
19C
330
1F
100
AcDbEntity
  8
0
  6
Continuous
 62
     7
370
    25
100
AcDbSpline
210
0.0
220
0.0
230
1.0
 70
     8
 71
     3
 72
     9
 73
     5
 74
     0
 42
0.00000001
 43
0.00000001
 40
0.4070473549086046
 40
0.4070473549086046
 40
0.4070473549086046
 40
0.4070473549086046
 40
0.4374999999999999
 40
0.4679526450870871
 40
0.4679526450870871
 40
0.4679526450870871
 40
0.4679526450870871
 10
-77.09806185190502
 20
-563.3385758364695
 30
0.0
 10
-76.22013032534133
 20
-563.9188311627244
 30
0.0
 10
-74.35292907834449
 20
-564.9109024860556
 30
0.0
 10
-72.33111805461564
 20
-565.5297127895252
 30
0.0
 10
-71.3000242429023
 20
-565.7402016493597
 30
0.0
  0
SPLINE
  5
19E
330
1F
100
AcDbEntity
  8
0
  6
Continuous
 62
     7
370
    25
100
AcDbSpline
210
0.0
220
0.0
230
1.0
 70
     8
 71
     3
 72
     9
 73
     5
 74
     0
 42
0.00000001
 43
0.00000001
 40
0.1570473549086006
 40
0.1570473549086006
 40
0.1570473549086006
 40
0.1570473549086006
 40
0.1875
 40
0.2179526450870865
 40
0.2179526450870865
 40
0.2179526450870865
 40
0.2179526450870865
 10
-81.7650008917584
 20
-540.4755130928057
 30
0.0
 10
-82.34525621801318
 20
-541.3534446193695
 30
0.0
 10
-83.33732754134465
 20
-543.2206458663662
 30
0.0
 10
-83.95613784481417
 20
-545.2424568900952
 30
0.0
 10
-84.16662670464873
 20
-546.2735507018086
 30
0.0
  0
SPLINE
  5
1A2
330
1F
100
AcDbEntity
  8
0
  6
Continuous
 62
     7
370
    25
100
AcDbSpline
210
0.0
220
0.0
230
1.0
 70
     8
 71
     3
 72
     9
 73
     5
 74
     0
 42
0.00000001
 43
0.00000001
 40
0.1670038438231453
 40
0.1670038438231453
 40
0.1670038438231453
 40
0.1670038438231453
 40
0.1874999999999998
 40
0.2079961562123147
 40
0.2079961562123147
 40
0.2079961562123147
 40
0.2079961562123147
 10
-76.67079875893303
 20
-544.5919474990484
 30
0.0
 10
-76.88462956217143
 20
-544.9641705293169
 30
0.0
 10
-77.26441440391933
 20
-545.7361288519667
 30
0.0
 10
-77.541722931578
 20
-546.5505342537344
 30
0.0
 10
-77.65372314949983
 20
-546.9649368942895
 30
0.0
  0
SPLINE
  5
1A8
330
1F
100
AcDbEntity
  8
0
  6
Continuous
 62
     7
370
    25
100
AcDbSpline
210
0.0
220
0.0
230
1.0
 70
     8
 71
     3
 72
     9
 73
     5
 74
     0
 42
0.00000001
 43
0.00000001
 40
0.2920038438231475
 40
0.2920038438231475
 40
0.2920038438231475
 40
0.2920038438231475
 40
0.3125000000000002
 40
0.3329961562123154
 40
0.3329961562123154
 40
0.3329961562123154
 40
0.3329961562123154
 10
-77.6537231489185
 20
-552.1822129972835
 30
0.0
 10
-77.5417229310982
 20
-552.5966156370968
 30
0.0
 10
-77.26441440335091
 20
-553.4110210388276
 30
0.0
 10
-76.88462956151437
 20
-554.1829793614406
 30
0.0
 10
-76.67079875782318
 20
-554.5552023923055
 30
0.0
  0
SPLINE
  5
1AC
330
1F
100
AcDbEntity
  8
0
  6
Continuous
 62
     7
370
    25
100
AcDbSpline
210
0.0
220
0.0
230
1.0
 70
     8
 71
     3
 72
     9
 73
     5
 74
     0
 42
0.00000001
 43
0.00000001
 40
0.2820473549085998
 40
0.2820473549085998
 40
0.2820473549085998
 40
0.2820473549085998
 40
0.3124999999999999
 40
0.342952645087085
 40
0.342952645087085
 40
0.342952645087085
 40
0.342952645087085
 10
-84.16662670473816
 20
-552.8735991871753
 30
0.0
 10
-83.95613784490182
 20
-553.9046929990403
 30
0.0
 10
-83.33732754145873
 20
-555.9265040227804
 30
0.0
 10
-82.34525621815374
 20
-557.7937052697881
 30
0.0
 10
-81.76500089200503
 20
-558.6716367962432
 30
0.0
  0
CIRCLE
  5
1B1
330
1F
100
AcDbEntity
  8
0
  6
Continuous
 62
     7
370
    25
100
AcDbCircle
 10
-195.0
 20
-604.9101749447
 30
0.0
 40
2.499999999999972
  0
CIRCLE
  5
1B2
330
1F
100
AcDbEntity
  8
0
  6
Continuous
 62
     7
370
    25
100
AcDbCircle
 10
-5.0
 20
-604.9101749447
 30
0.0
 40
2.499999999999976
  0
CIRCLE
  5
1B7
330
1F
100
AcDbEntity
  8
0
  6
Continuous
 62
     7
370
    25
100
AcDbCircle
 10
-204.9550874724
 20
-492.9101749447
 30
0.0
 40
2.499999999999972
  0
CIRCLE
  5
1B8
330
1F
100
AcDbEntity
  8
0
  6
Continuous
 62
     7
370
    25
100
AcDbCircle
 10
-204.9550874724
 20
-305.9101749447
 30
0.0
 40
2.5
  0
CIRCLE
  5
1B9
330
1F
100
AcDbEntity
  8
0
  6
Continuous
 62
     7
370
    25
100
AcDbCircle
 10
4.9550874724
 20
-492.9101749447
 30
0.0
 40
2.499999999999996
  0
CIRCLE
  5
1BA
330
1F
100
AcDbEntity
  8
0
  6
Continuous
 62
     7
370
    25
100
AcDbCircle
 10
4.9550874724
 20
-305.9101749447
 30
0.0
 40
2.500000000000004
  0
CIRCLE
  5
1CB
330
1F
100
AcDbEntity
  8
0
  6
Continuous
 62
     7
370
    25
100
AcDbCircle
 10
-131.0
 20
-473.5735749447
 30
0.0
 40
1.499999999999943
  0
CIRCLE
  5
1CC
330
1F
100
AcDbEntity
  8
0
  6
Continuous
 62
     7
370
    25
100
AcDbCircle
 10
-69.0
 20
-473.5735749447
 30
0.0
 40
1.5
  0
CIRCLE
  5
1CD
330
1F
100
AcDbEntity
  8
0
  6
Continuous
 62
     7
370
    25
100
AcDbCircle
 10
-131.0
 20
-411.5735749447
 30
0.0
 40
1.500000000000057
  0
CIRCLE
  5
1CE
330
1F
100
AcDbEntity
  8
0
  6
Continuous
 62
     7
370
    25
100
AcDbCircle
 10
-69.0
 20
-411.5735749447
 30
0.0
 40
1.5
  0
CIRCLE
  5
1F9
330
1F
100
AcDbEntity
  8
0
  6
Continuous
 62
     7
370
    25
100
AcDbCircle
 10
-20.0
 20
-193.9101749447
 30
0.0
 40
1.5
  0
CIRCLE
  5
1FA
330
1F
100
AcDbEntity
  8
0
  6
Continuous
 62
     7
370
    25
100
AcDbCircle
 10
-180.0
 20
-193.9101749447
 30
0.0
 40
1.5
  0
CIRCLE
  5
1FB
330
1F
100
AcDbEntity
  8
0
  6
Continuous
 62
     7
370
    25
100
AcDbCircle
 10
4.9550874724
 20
-492.9101749447
 30
0.0
 40
1.500000000000047
  0
CIRCLE
  5
204
330
1F
100
AcDbEntity
  8
0
  6
Continuous
 62
     7
370
    25
100
AcDbCircle
 10
4.9550874724
 20
-305.9101749447
 30
0.0
 40
1.499999999999955
  0
CIRCLE
  5
205
330
1F
100
AcDbEntity
  8
0
  6
Continuous
 62
     7
370
    25
100
AcDbCircle
 10
-204.9550874724
 20
-305.9101749447
 30
0.0
 40
1.499999999999972
  0
CIRCLE
  5
206
330
1F
100
AcDbEntity
  8
0
  6
Continuous
 62
     7
370
    25
100
AcDbCircle
 10
-204.9550874724
 20
-492.9101749447
 30
0.0
 40
1.500000000000028
  0
CIRCLE
  5
207
330
1F
100
AcDbEntity
  8
0
  6
Continuous
 62
     7
370
    25
100
AcDbCircle
 10
-195.0
 20
-604.9101749447
 30
0.0
 40
1.499999999999972
  0
CIRCLE
  5
208
330
1F
100
AcDbEntity
  8
0
  6
Continuous
 62
     7
370
    25
100
AcDbCircle
 10
-5.0
 20
-604.9101749447
 30
0.0
 40
1.49999999999996
  0
CIRCLE
  5
219
330
1F
100
AcDbEntity
  8
0
  6
Continuous
 62
     7
370
    25
100
AcDbCircle
 10
-140.9496701931
 20
-327.4392188326
 30
0.0
 40
1.5
  0
CIRCLE
  5
21A
330
1F
100
AcDbEntity
  8
0
  6
Continuous
 62
     7
370
    25
100
AcDbCircle
 10
-60.1371014737
 20
-327.4516871245
 30
0.0
 40
1.5
  0
CIRCLE
  5
21B
330
1F
100
AcDbEntity
  8
0
  6
Continuous
 62
     7
370
    25
100
AcDbCircle
 10
-140.9220101356
 20
-385.5900917907
 30
0.0
 40
1.499999999999943
  0
CIRCLE
  5
21C
330
1F
100
AcDbEntity
  8
0
  6
Continuous
 62
     7
370
    25
100
AcDbCircle
 10
-60.1085093788
 20
-385.5704217439
 30
0.0
 40
1.5
  0
LINE
  5
21D
330
1F
100
AcDbEntity
  8
0
  6
Continuous
 62
     7
370
    25
100
AcDbLine
 10
-12.1772938171
 20
-490.0735749447
 30
0.0
 11
-12.1772938171
 21
-495.0735749447
 31
0.0
  0
LINE
  5
21E
330
1F
100
AcDbEntity
  8
0
  6
Continuous
 62
     7
370
    25
100
AcDbLine
 10
-13.4029649261
 20
-495.0735749447
 30
0.0
 11
-13.4029649261
 21
-490.0735749447
 31
0.0
  0
LINE
  5
21F
330
1F
100
AcDbEntity
  8
0
  6
Continuous
 62
     7
370
    25
100
AcDbLine
 10
-6.5970350739
 20
-490.0735749447
 30
0.0
 11
-6.5970350739
 21
-495.0735749447
 31
0.0
  0
LINE
  5
220
330
1F
100
AcDbEntity
  8
0
  6
Continuous
 62
     7
370
    25
100
AcDbLine
 10
-16.6994614872
 20
-495.0735749447
 30
0.0
 11
-3.3005385128
 21
-495.0735749447
 31
0.0
  0
LINE
  5
221
330
1F
100
AcDbEntity
  8
0
  6
Continuous
 62
     7
370
    25
100
AcDbLine
 10
-7.8227061829
 20
-495.0735749447
 30
0.0
 11
-7.8227061829
 21
-490.0735749447
 31
0.0
  0
LINE
  5
222
330
1F
100
AcDbEntity
  8
0
  6
Continuous
 62
     7
370
    25
100
AcDbLine
 10
-16.6994614872
 20
-490.0735749447
 30
0.0
 11
-3.3005385128
 21
-490.0735749447
 31
0.0
  0
LINE
  5
223
330
1F
100
AcDbEntity
  8
0
  6
Continuous
 62
     7
370
    25
100
AcDbLine
 10
-190.8406938171
 20
-490.0735749447
 30
0.0
 11
-190.8406938171
 21
-495.0735749447
 31
0.0
  0
LINE
  5
224
330
1F
100
AcDbEntity
  8
0
  6
Continuous
 62
     7
370
    25
100
AcDbLine
 10
-192.0663649261
 20
-495.0735749447
 30
0.0
 11
-192.0663649261
 21
-490.0735749447
 31
0.0
  0
LINE
  5
225
330
1F
100
AcDbEntity
  8
0
  6
Continuous
 62
     7
370
    25
100
AcDbLine
 10
-185.2604350739
 20
-490.0735749447
 30
0.0
 11
-185.2604350739
 21
-495.0735749447
 31
0.0
  0
LINE
  5
226
330
1F
100
AcDbEntity
  8
0
  6
Continuous
 62
     7
370
    25
100
AcDbLine
 10
-195.3628614872
 20
-495.0735749447
 30
0.0
 11
-181.9639385128
 21
-495.0735749447
 31
0.0
  0
LINE
  5
227
330
1F
100
AcDbEntity
  8
0
  6
Continuous
 62
     7
370
    25
100
AcDbLine
 10
-186.4861061829
 20
-495.0735749447
 30
0.0
 11
-186.4861061829
 21
-490.0735749447
 31
0.0
  0
LINE
  5
228
330
1F
100
AcDbEntity
  8
0
  6
Continuous
 62
     7
370
    25
100
AcDbLine
 10
-195.3628614872
 20
-490.0735749447
 30
0.0
 11
-181.9639385128
 21
-490.0735749447
 31
0.0
  0
LINE
  5
229
330
1F
100
AcDbEntity
  8
0
  6
Continuous
 62
     7
370
    25
100
AcDbLine
 10
-12.1772938171
 20
-303.7467749447
 30
0.0
 11
-12.1772938171
 21
-308.7467749447
 31
0.0
  0
LINE
  5
22A
330
1F
100
AcDbEntity
  8
0
  6
Continuous
 62
     7
370
    25
100
AcDbLine
 10
-16.6994614872
 20
-303.7467749447
 30
0.0
 11
-3.3005385128
 21
-303.7467749447
 31
0.0
  0
LINE
  5
22B
330
1F
100
AcDbEntity
  8
0
  6
Continuous
 62
     7
370
    25
100
AcDbLine
 10
-7.8227061829
 20
-308.7467749447
 30
0.0
 11
-7.8227061829
 21
-303.7467749447
 31
0.0
  0
LINE
  5
22C
330
1F
100
AcDbEntity
  8
0
  6
Continuous
 62
     7
370
    25
100
AcDbLine
 10
-16.6994614872
 20
-308.7467749447
 30
0.0
 11
-3.3005385128
 21
-308.7467749447
 31
0.0
  0
LINE
  5
22D
330
1F
100
AcDbEntity
  8
0
  6
Continuous
 62
     7
370
    25
100
AcDbLine
 10
-13.4029649261
 20
-308.7467749447
 30
0.0
 11
-13.4029649261
 21
-303.7467749447
 31
0.0
  0
LINE
  5
22E
330
1F
100
AcDbEntity
  8
0
  6
Continuous
 62
     7
370
    25
100
AcDbLine
 10
-6.5970350739
 20
-303.7467749447
 30
0.0
 11
-6.5970350739
 21
-308.7467749447
 31
0.0
  0
LINE
  5
22F
330
1F
100
AcDbEntity
  8
0
  6
Continuous
 62
     7
370
    25
100
AcDbLine
 10
-190.8406938171
 20
-303.7467749447
 30
0.0
 11
-190.8406938171
 21
-308.7467749447
 31
0.0
  0
LINE
  5
230
330
1F
100
AcDbEntity
  8
0
  6
Continuous
 62
     7
370
    25
100
AcDbLine
 10
-195.3628614872
 20
-303.7467749447
 30
0.0
 11
-181.9639385128
 21
-303.7467749447
 31
0.0
  0
LINE
  5
231
330
1F
100
AcDbEntity
  8
0
  6
Continuous
 62
     7
370
    25
100
AcDbLine
 10
-186.4861061829
 20
-308.7467749447
 30
0.0
 11
-186.4861061829
 21
-303.7467749447
 31
0.0
  0
LINE
  5
232
330
1F
100
AcDbEntity
  8
0
  6
Continuous
 62
     7
370
    25
100
AcDbLine
 10
-195.3628614872
 20
-308.7467749447
 30
0.0
 11
-181.9639385128
 21
-308.7467749447
 31
0.0
  0
LINE
  5
233
330
1F
100
AcDbEntity
  8
0
  6
Continuous
 62
     7
370
    25
100
AcDbLine
 10
-185.2604350739
 20
-303.7467749447
 30
0.0
 11
-185.2604350739
 21
-308.7467749447
 31
0.0
  0
LINE
  5
234
330
1F
100
AcDbEntity
  8
0
  6
Continuous
 62
     7
370
    25
100
AcDbLine
 10
-192.0663649261
 20
-308.7467749447
 30
0.0
 11
-192.0663649261
 21
-303.7467749447
 31
0.0
  0
LINE
  5
235
330
1F
100
AcDbEntity
  8
0
  6
Continuous
 62
     7
370
    25
100
AcDbLine
 10
-16.0100214884
 20
-490.0735749447
 30
0.0
 11
-16.0100214884
 21
-495.0735749447
 31
0.0
  0
LINE
  5
236
330
1F
100
AcDbEntity
  8
0
  6
Continuous
 62
     7
370
    25
100
AcDbLine
 10
-3.9899785116
 20
-495.0735749447
 30
0.0
 11
-3.9899785116
 21
-490.0735749447
 31
0.0
  0
LINE
  5
237
330
1F
100
AcDbEntity
  8
0
  6
Continuous
 62
     7
370
    25
100
AcDbLine
 10
-3.9899785116
 20
-308.7467749447
 30
0.0
 11
-3.9899785116
 21
-303.7467749447
 31
0.0
  0
LINE
  5
238
330
1F
100
AcDbEntity
  8
0
  6
Continuous
 62
     7
370
    25
100
AcDbLine
 10
-194.6734214884
 20
-490.0735749447
 30
0.0
 11
-194.6734214884
 21
-495.0735749447
 31
0.0
  0
LINE
  5
239
330
1F
100
AcDbEntity
  8
0
  6
Continuous
 62
     7
370
    25
100
AcDbLine
 10
-182.6533785116
 20
-495.0735749447
 30
0.0
 11
-182.6533785116
 21
-490.0735749447
 31
0.0
  0
LINE
  5
23A
330
1F
100
AcDbEntity
  8
0
  6
Continuous
 62
     7
370
    25
100
AcDbLine
 10
-16.0100214884
 20
-303.7467749447
 30
0.0
 11
-16.0100214884
 21
-308.7467749447
 31
0.0
  0
LINE
  5
23B
330
1F
100
AcDbEntity
  8
0
  6
Continuous
 62
     7
370
    25
100
AcDbLine
 10
-182.6533785116
 20
-308.7467749447
 30
0.0
 11
-182.6533785116
 21
-303.7467749447
 31
0.0
  0
LINE
  5
23C
330
1F
100
AcDbEntity
  8
0
  6
Continuous
 62
     7
370
    25
100
AcDbLine
 10
-194.6734214884
 20
-303.7467749447
 30
0.0
 11
-194.6734214884
 21
-308.7467749447
 31
0.0
  0
LINE
  5
23D
330
1F
100
AcDbEntity
  8
0
  6
Continuous
 62
     7
370
    25
100
AcDbLine
 10
-3.3005385128
 20
-490.0735749447
 30
0.0
 11
-3.3005385128
 21
-495.0735749447
 31
0.0
  0
LINE
  5
23E
330
1F
100
AcDbEntity
  8
0
  6
Continuous
 62
     7
370
    25
100
AcDbLine
 10
-16.6994614872
 20
-495.0735749447
 30
0.0
 11
-16.6994614872
 21
-490.0735749447
 31
0.0
  0
LINE
  5
23F
330
1F
100
AcDbEntity
  8
0
  6
Continuous
 62
     7
370
    25
100
AcDbLine
 10
-181.9639385128
 20
-490.0735749447
 30
0.0
 11
-181.9639385128
 21
-495.0735749447
 31
0.0
  0
LINE
  5
240
330
1F
100
AcDbEntity
  8
0
  6
Continuous
 62
     7
370
    25
100
AcDbLine
 10
-16.6994614872
 20
-308.7467749447
 30
0.0
 11
-16.6994614872
 21
-303.7467749447
 31
0.0
  0
LINE
  5
241
330
1F
100
AcDbEntity
  8
0
  6
Continuous
 62
     7
370
    25
100
AcDbLine
 10
-195.3628614872
 20
-495.0735749447
 30
0.0
 11
-195.3628614872
 21
-490.0735749447
 31
0.0
  0
LINE
  5
242
330
1F
100
AcDbEntity
  8
0
  6
Continuous
 62
     7
370
    25
100
AcDbLine
 10
-3.3005385128
 20
-303.7467749447
 30
0.0
 11
-3.3005385128
 21
-308.7467749447
 31
0.0
  0
LINE
  5
243
330
1F
100
AcDbEntity
  8
0
  6
Continuous
 62
     7
370
    25
100
AcDbLine
 10
-181.9639385128
 20
-303.7467749447
 30
0.0
 11
-181.9639385128
 21
-308.7467749447
 31
0.0
  0
LINE
  5
244
330
1F
100
AcDbEntity
  8
0
  6
Continuous
 62
     7
370
    25
100
AcDbLine
 10
-195.3628614872
 20
-308.7467749447
 30
0.0
 11
-195.3628614872
 21
-303.7467749447
 31
0.0
  0
LINE
  5
245
330
1F
100
AcDbEntity
  8
0
  6
Continuous
 62
     7
370
    25
100
AcDbLine
 10
-95.0
 20
-262.4326312085
 30
0.0
 11
-50.0
 21
-262.4326312085
 31
0.0
  0
LINE
  5
246
330
1F
100
AcDbEntity
  8
0
  6
Continuous
 62
     7
370
    25
100
AcDbLine
 10
-50.0
 20
-262.4326312085
 30
0.0
 11
-50.0
 21
-236.4326312085
 31
0.0
  0
LINE
  5
247
330
1F
100
AcDbEntity
  8
0
  6
Continuous
 62
     7
370
    25
100
AcDbLine
 10
-50.0
 20
-236.4326312085
 30
0.0
 11
-95.0
 21
-236.4326312085
 31
0.0
  0
LINE
  5
248
330
1F
100
AcDbEntity
  8
0
  6
Continuous
 62
     7
370
    25
100
AcDbLine
 10
-95.0
 20
-236.4326312085
 30
0.0
 11
-95.0
 21
-262.4326312085
 31
0.0
  0
LINE
  5
249
330
1F
100
AcDbEntity
  8
0
  6
Continuous
 62
     7
370
    25
100
AcDbLine
 10
-179.0
 20
-210.9326312085
 30
0.0
 11
-179.0
 21
-221.4326312085
 31
0.0
  0
LINE
  5
24A
330
1F
100
AcDbEntity
  8
0
  6
Continuous
 62
     7
370
    25
100
AcDbLine
 10
-179.0
 20
-221.4326312085
 30
0.0
 11
-151.5
 21
-221.4326312085
 31
0.0
  0
LINE
  5
24B
330
1F
100
AcDbEntity
  8
0
  6
Continuous
 62
     7
370
    25
100
AcDbLine
 10
-151.5
 20
-221.4326312085
 30
0.0
 11
-151.5
 21
-210.9326312085
 31
0.0
  0
LINE
  5
24C
330
1F
100
AcDbEntity
  8
0
  6
Continuous
 62
     7
370
    25
100
AcDbLine
 10
-151.5
 20
-210.9326312085
 30
0.0
 11
-179.0
 21
-210.9326312085
 31
0.0
  0
LINE
  5
24D
330
1F
100
AcDbEntity
  8
0
  6
Continuous
 62
     7
370
    25
100
AcDbLine
 10
-136.0
 20
-578.5735749447
 30
0.0
 11
-136.0
 21
-521.5735749447
 31
0.0
  0
LINE
  5
24E
330
1F
100
AcDbEntity
  8
0
  6
Continuous
 62
     7
370
    25
100
AcDbLine
 10
-136.0
 20
-521.5735749447
 30
0.0
 11
-170.0
 21
-521.5735749447
 31
0.0
  0
LINE
  5
24F
330
1F
100
AcDbEntity
  8
0
  6
Continuous
 62
     7
370
    25
100
AcDbLine
 10
-170.0
 20
-521.5735749447
 30
0.0
 11
-170.0
 21
-578.5735749447
 31
0.0
  0
LINE
  5
250
330
1F
100
AcDbEntity
  8
0
  6
Continuous
 62
     7
370
    25
100
AcDbLine
 10
-170.0
 20
-578.5735749447
 30
0.0
 11
-136.0
 21
-578.5735749447
 31
0.0
  0
LINE
  5
251
330
1F
100
AcDbEntity
  8
0
  6
Continuous
 62
     7
370
    25
100
AcDbLine
 10
-69.5
 20
-527.2745432353
 30
0.0
 11
-69.5
 21
-529.7998923792
 31
0.0
  0
LINE
  5
252
330
1F
100
AcDbEntity
  8
0
  6
Continuous
 62
     7
370
    25
100
AcDbLine
 10
-80.9214448593
 20
-534.5308097419
 30
0.0
 11
-82.7071363638
 21
-532.7451182373
 31
0.0
  0
LINE
  5
253
330
1F
100
AcDbEntity
  8
0
  6
Continuous
 62
     7
370
    25
100
AcDbLine
 10
-53.2928636362
 20
-532.7451182373
 30
0.0
 11
-55.0785551407
 21
-534.5308097419
 31
0.0
  0
LINE
  5
254
330
1F
100
AcDbEntity
  8
0
  6
Continuous
 62
     7
370
    25
100
AcDbLine
 10
-66.5
 20
-529.7998923792
 30
0.0
 11
-66.5
 21
-527.2745432353
 31
0.0
  0
LINE
  5
255
330
1F
100
AcDbEntity
  8
0
  6
Continuous
 62
     7
370
    25
100
AcDbLine
 10
-47.6100284789
 20
-531.3049237672
 30
0.0
 11
-45.1220058056
 21
-528.8169010938
 31
0.0
  0
LINE
  5
256
330
1F
100
AcDbEntity
  8
0
  6
Continuous
 62
     7
370
    25
100
AcDbLine
 10
-37.1456303303
 20
-548.0735749447
 30
0.0
 11
-40.6642257385
 21
-548.0735749447
 31
0.0
  0
LINE
  5
257
330
1F
100
AcDbEntity
  8
0
  6
Continuous
 62
     7
370
    25
100
AcDbLine
 10
-51.1715432926
 20
-564.2807113085
 30
0.0
 11
-52.9572347971
 21
-562.495019804
 31
0.0
  0
LINE
  5
258
330
1F
100
AcDbEntity
  8
0
  6
Continuous
 62
     7
370
    25
100
AcDbLine
 10
-48.2263174345
 20
-551.0735749447
 30
0.0
 11
-45.7009682906
 21
-551.0735749447
 31
0.0
  0
LINE
  5
259
330
1F
100
AcDbEntity
  8
0
  6
Continuous
 62
     7
370
    25
100
AcDbLine
 10
-66.5
 20
-571.8726066541
 30
0.0
 11
-66.5
 21
-569.3472575102
 31
0.0
  0
LINE
  5
25A
330
1F
100
AcDbEntity
  8
0
  6
Continuous
 62
     7
370
    25
100
AcDbLine
 10
-55.0785551407
 20
-564.6163401476
 30
0.0
 11
-53.2928636362
 21
-566.4020316521
 31
0.0
  0
LINE
  5
25B
330
1F
100
AcDbEntity
  8
0
  6
Continuous
 62
     7
370
    25
100
AcDbLine
 10
-82.7071363638
 20
-566.4020316521
 30
0.0
 11
-80.9214448593
 21
-564.6163401476
 31
0.0
  0
LINE
  5
25C
330
1F
100
AcDbEntity
  8
0
  6
Continuous
 62
     7
370
    25
100
AcDbLine
 10
-69.5
 20
-569.3472575102
 30
0.0
 11
-69.5
 21
-571.8726066541
 31
0.0
  0
LINE
  5
25D
330
1F
100
AcDbEntity
  8
0
  6
Continuous
 62
     7
370
    25
100
AcDbLine
 10
-88.3899715211
 20
-567.8422261222
 30
0.0
 11
-90.8779941944
 21
-570.3302487956
 31
0.0
  0
LINE
  5
25E
330
1F
100
AcDbEntity
  8
0
  6
Continuous
 62
     7
370
    25
100
AcDbLine
 10
-98.8543696697
 20
-551.0735749447
 30
0.0
 11
-95.3357742615
 21
-551.0735749447
 31
0.0
  0
LINE
  5
25F
330
1F
100
AcDbEntity
  8
0
  6
Continuous
 62
     7
370
    25
100
AcDbLine
 10
-84.8284567074
 20
-534.8664385809
 30
0.0
 11
-83.0427652029
 21
-536.6521300854
 31
0.0
  0
LINE
  5
260
330
1F
100
AcDbEntity
  8
0
  6
Continuous
 62
     7
370
    25
100
AcDbLine
 10
-87.7736825655
 20
-548.0735749447
 30
0.0
 11
-90.2990317094
 21
-548.0735749447
 31
0.0
  0
LINE
  5
261
330
1F
100
AcDbEntity
  8
0
  6
Continuous
 62
     7
370
    25
100
AcDbLine
 10
-66.5
 20
-522.2378006832
 30
0.0
 11
-66.5
 21
-518.719205275
 31
0.0
  0
LINE
  5
262
330
1F
100
AcDbEntity
  8
0
  6
Continuous
 62
     7
370
    25
100
AcDbLine
 10
-47.2433261491
 20
-526.6955807503
 30
0.0
 11
-49.7313488225
 21
-529.1836034236
 31
0.0
  0
LINE
  5
263
330
1F
100
AcDbEntity
  8
0
  6
Continuous
 62
     7
370
    25
100
AcDbLine
 10
-69.5
 20
-576.9093492062
 30
0.0
 11
-69.5
 21
-580.4279446144
 31
0.0
  0
LINE
  5
264
330
1F
100
AcDbEntity
  8
0
  6
Continuous
 62
     7
370
    25
100
AcDbLine
 10
-88.7566738509
 20
-572.4515691392
 30
0.0
 11
-86.2686511775
 21
-569.9635464658
 31
0.0
  0
LINE
  5
265
330
1F
100
AcDbEntity
  8
0
  6
Continuous
 62
     7
370
    25
100
AcDbLine
 10
-49.7313488225
 20
-569.9635464658
 30
0.0
 11
-47.2433261491
 21
-572.4515691392
 31
0.0
  0
LINE
  5
266
330
1F
100
AcDbEntity
  8
0
  6
Continuous
 62
     7
370
    25
100
AcDbLine
 10
-66.5
 20
-580.4279446144
 30
0.0
 11
-66.5
 21
-576.9093492062
 31
0.0
  0
LINE
  5
267
330
1F
100
AcDbEntity
  8
0
  6
Continuous
 62
     7
370
    25
100
AcDbLine
 10
-86.2686511775
 20
-529.1836034236
 30
0.0
 11
-88.7566738509
 21
-526.6955807503
 31
0.0
  0
LINE
  5
268
330
1F
100
AcDbEntity
  8
0
  6
Continuous
 62
     7
370
    25
100
AcDbLine
 10
-69.5
 20
-518.719205275
 30
0.0
 11
-69.5
 21
-522.2378006832
 31
0.0
  0
LINE
  5
269
330
1F
100
AcDbEntity
  8
0
  6
Continuous
 62
     7
370
    25
100
AcDbLine
 10
-45.7009682906
 20
-548.0735749447
 30
0.0
 11
-48.2263174345
 21
-548.0735749447
 31
0.0
  0
LINE
  5
26A
330
1F
100
AcDbEntity
  8
0
  6
Continuous
 62
     7
370
    25
100
AcDbLine
 10
-52.9572347971
 20
-536.6521300854
 30
0.0
 11
-51.1715432926
 21
-534.8664385809
 31
0.0
  0
LINE
  5
26B
330
1F
100
AcDbEntity
  8
0
  6
Continuous
 62
     7
370
    25
100
AcDbLine
 10
-40.6642257385
 20
-551.0735749447
 30
0.0
 11
-37.1456303303
 21
-551.0735749447
 31
0.0
  0
LINE
  5
26C
330
1F
100
AcDbEntity
  8
0
  6
Continuous
 62
     7
370
    25
100
AcDbLine
 10
-45.1220058056
 20
-570.3302487956
 30
0.0
 11
-47.6100284789
 21
-567.8422261222
 31
0.0
  0
LINE
  5
26D
330
1F
100
AcDbEntity
  8
0
  6
Continuous
 62
     7
370
    25
100
AcDbLine
 10
-95.3357742615
 20
-548.0735749447
 30
0.0
 11
-98.8543696697
 21
-548.0735749447
 31
0.0
  0
LINE
  5
26E
330
1F
100
AcDbEntity
  8
0
  6
Continuous
 62
     7
370
    25
100
AcDbLine
 10
-90.8779941944
 20
-528.8169010938
 30
0.0
 11
-88.3899715211
 21
-531.3049237672
 31
0.0
  0
LINE
  5
26F
330
1F
100
AcDbEntity
  8
0
  6
Continuous
 62
     7
370
    25
100
AcDbLine
 10
-90.2990317094
 20
-551.0735749447
 30
0.0
 11
-87.7736825655
 21
-551.0735749447
 31
0.0
  0
LINE
  5
270
330
1F
100
AcDbEntity
  8
0
  6
Continuous
 62
     7
370
    25
100
AcDbLine
 10
-83.0427652029
 20
-562.495019804
 30
0.0
 11
-84.8284567074
 21
-564.2807113085
 31
0.0
  0
LINE
  5
271
330
1F
100
AcDbEntity
  8
0
  6
Continuous
 62
     7
370
    25
100
AcDbLine
 10
-74.7894757367
 20
-540.6627788644
 30
0.0
 11
-77.3316442148
 21
-538.1206103864
 31
0.0
  0
LINE
  5
272
330
1F
100
AcDbEntity
  8
0
  6
Continuous
 62
     7
370
    25
100
AcDbLine
 10
-69.5
 20
-534.876637137
 30
0.0
 11
-69.5
 21
-538.4718062764
 31
0.0
  0
LINE
  5
273
330
1F
100
AcDbEntity
  8
0
  6
Continuous
 62
     7
370
    25
100
AcDbLine
 10
-66.5
 20
-538.4718062764
 30
0.0
 11
-66.5
 21
-534.876637137
 31
0.0
  0
LINE
  5
274
330
1F
100
AcDbEntity
  8
0
  6
Continuous
 62
     7
370
    25
100
AcDbLine
 10
-58.6683557852
 20
-538.1206103864
 30
0.0
 11
-61.2105242633
 21
-540.6627788644
 31
0.0
  0
LINE
  5
275
330
1F
100
AcDbEntity
  8
0
  6
Continuous
 62
     7
370
    25
100
AcDbLine
 10
-59.0892039197
 20
-542.784099208
 30
0.0
 11
-56.5470354417
 21
-540.24193073
 31
0.0
  0
LINE
  5
276
330
1F
100
AcDbEntity
  8
0
  6
Continuous
 62
     7
370
    25
100
AcDbLine
 10
-53.3030621923
 20
-548.0735749447
 30
0.0
 11
-56.8982313317
 21
-548.0735749447
 31
0.0
  0
LINE
  5
277
330
1F
100
AcDbEntity
  8
0
  6
Continuous
 62
     7
370
    25
100
AcDbLine
 10
-56.8982313317
 20
-551.0735749447
 30
0.0
 11
-53.3030621923
 21
-551.0735749447
 31
0.0
  0
LINE
  5
278
330
1F
100
AcDbEntity
  8
0
  6
Continuous
 62
     7
370
    25
100
AcDbLine
 10
-56.5470354417
 20
-558.9052191595
 30
0.0
 11
-59.0892039197
 21
-556.3630506814
 31
0.0
  0
LINE
  5
279
330
1F
100
AcDbEntity
  8
0
  6
Continuous
 62
     7
370
    25
100
AcDbLine
 10
-61.2105242633
 20
-558.484371025
 30
0.0
 11
-58.6683557852
 21
-561.026539503
 31
0.0
  0
LINE
  5
27A
330
1F
100
AcDbEntity
  8
0
  6
Continuous
 62
     7
370
    25
100
AcDbLine
 10
-66.5
 20
-564.2705127525
 30
0.0
 11
-66.5
 21
-560.675343613
 31
0.0
  0
LINE
  5
27B
330
1F
100
AcDbEntity
  8
0
  6
Continuous
 62
     7
370
    25
100
AcDbLine
 10
-69.5
 20
-560.675343613
 30
0.0
 11
-69.5
 21
-564.2705127525
 31
0.0
  0
LINE
  5
27C
330
1F
100
AcDbEntity
  8
0
  6
Continuous
 62
     7
370
    25
100
AcDbLine
 10
-77.3316442148
 20
-561.026539503
 30
0.0
 11
-74.7894757367
 21
-558.484371025
 31
0.0
  0
LINE
  5
27D
330
1F
100
AcDbEntity
  8
0
  6
Continuous
 62
     7
370
    25
100
AcDbLine
 10
-79.1017686683
 20
-548.0735749447
 30
0.0
 11
-82.6969378077
 21
-548.0735749447
 31
0.0
  0
LINE
  5
27E
330
1F
100
AcDbEntity
  8
0
  6
Continuous
 62
     7
370
    25
100
AcDbLine
 10
-79.4529645583
 20
-540.24193073
 30
0.0
 11
-76.9107960803
 21
-542.784099208
 31
0.0
  0
LINE
  5
27F
330
1F
100
AcDbEntity
  8
0
  6
Continuous
 62
     7
370
    25
100
AcDbLine
 10
-76.9107960803
 20
-556.3630506814
 30
0.0
 11
-79.4529645583
 21
-558.9052191595
 31
0.0
  0
LINE
  5
280
330
1F
100
AcDbEntity
  8
0
  6
Continuous
 62
     7
370
    25
100
AcDbLine
 10
-82.6969378077
 20
-551.0735749447
 30
0.0
 11
-79.1017686683
 21
-551.0735749447
 31
0.0
  0
LINE
  5
281
330
1F
100
AcDbEntity
  8
0
  6
Continuous
 62
     7
370
    25
100
AcDbLine
 10
-22.0
 20
-601.9101749447
 30
0.0
 11
-22.0
 21
-596.9101749447
 31
0.0
  0
LINE
  5
282
330
1F
100
AcDbEntity
  8
0
  6
Continuous
 62
     7
370
    25
100
AcDbLine
 10
-10.0
 20
-601.9101749447
 30
0.0
 11
-22.0
 21
-601.9101749447
 31
0.0
  0
LINE
  5
283
330
1F
100
AcDbEntity
  8
0
  6
Continuous
 62
     7
370
    25
100
AcDbLine
 10
-10.0
 20
-601.9101749447
 30
0.0
 11
-10.0
 21
-596.9101749447
 31
0.0
  0
LINE
  5
284
330
1F
100
AcDbEntity
  8
0
  6
Continuous
 62
     7
370
    25
100
AcDbLine
 10
-22.0
 20
-596.9101749447
 30
0.0
 11
-10.0
 21
-596.9101749447
 31
0.0
  0
LINE
  5
285
330
1F
100
AcDbEntity
  8
0
  6
Continuous
 62
     7
370
    25
100
AcDbLine
 10
-178.1435876995
 20
-601.9101749447
 30
0.0
 11
-190.1435876995
 21
-601.9101749447
 31
0.0
  0
LINE
  5
286
330
1F
100
AcDbEntity
  8
0
  6
Continuous
 62
     7
370
    25
100
AcDbLine
 10
-178.1435876995
 20
-601.9101749447
 30
0.0
 11
-178.1435876995
 21
-596.9101749447
 31
0.0
  0
LINE
  5
287
330
1F
100
AcDbEntity
  8
0
  6
Continuous
 62
     7
370
    25
100
AcDbLine
 10
-190.1435876995
 20
-596.9101749447
 30
0.0
 11
-178.1435876995
 21
-596.9101749447
 31
0.0
  0
LINE
  5
288
330
1F
100
AcDbEntity
  8
0
  6
Continuous
 62
     7
370
    25
100
AcDbLine
 10
-190.1435876995
 20
-601.9101749447
 30
0.0
 11
-190.1435876995
 21
-596.9101749447
 31
0.0
  0
LINE
  5
289
330
1F
100
AcDbEntity
  8
0
  6
Continuous
 62
     7
370
    25
100
AcDbLine
 10
-53.4376399865
 20
-329.9516871245
 30
0.0
 11
-53.4376399865
 21
-324.9516871245
 31
0.0
  0
LINE
  5
28A
330
1F
100
AcDbEntity
  8
0
  6
Continuous
 62
     7
370
    25
100
AcDbLine
 10
-66.836562961
 20
-324.9516871245
 30
0.0
 11
-53.4376399865
 21
-324.9516871245
 31
0.0
  0
LINE
  5
28B
330
1F
100
AcDbEntity
  8
0
  6
Continuous
 62
     7
370
    25
100
AcDbLine
 10
-66.836562961
 20
-324.9516871245
 30
0.0
 11
-66.836562961
 21
-329.9516871245
 31
0.0
  0
LINE
  5
28C
330
1F
100
AcDbEntity
  8
0
  6
Continuous
 62
     7
370
    25
100
AcDbLine
 10
-66.836562961
 20
-329.9516871245
 30
0.0
 11
-53.4376399865
 21
-329.9516871245
 31
0.0
  0
LINE
  5
28D
330
1F
100
AcDbEntity
  8
0
  6
Continuous
 62
     7
370
    25
100
AcDbLine
 10
-53.4090478916
 20
-388.0704217439
 30
0.0
 11
-53.4090478916
 21
-383.0704217439
 31
0.0
  0
LINE
  5
28E
330
1F
100
AcDbEntity
  8
0
  6
Continuous
 62
     7
370
    25
100
AcDbLine
 10
-66.8079708661
 20
-383.0704217439
 30
0.0
 11
-53.4090478916
 21
-383.0704217439
 31
0.0
  0
LINE
  5
28F
330
1F
100
AcDbEntity
  8
0
  6
Continuous
 62
     7
370
    25
100
AcDbLine
 10
-66.8079708661
 20
-383.0704217439
 30
0.0
 11
-66.8079708661
 21
-388.0704217439
 31
0.0
  0
LINE
  5
290
330
1F
100
AcDbEntity
  8
0
  6
Continuous
 62
     7
370
    25
100
AcDbLine
 10
-66.8079708661
 20
-388.0704217439
 30
0.0
 11
-53.4090478916
 21
-388.0704217439
 31
0.0
  0
LINE
  5
291
330
1F
100
AcDbEntity
  8
0
  6
Continuous
 62
     7
370
    25
100
AcDbLine
 10
-134.2225486484
 20
-388.0900917907
 30
0.0
 11
-134.2225486484
 21
-383.0900917907
 31
0.0
  0
LINE
  5
292
330
1F
100
AcDbEntity
  8
0
  6
Continuous
 62
     7
370
    25
100
AcDbLine
 10
-147.6214716228
 20
-383.0900917907
 30
0.0
 11
-134.2225486484
 21
-383.0900917907
 31
0.0
  0
LINE
  5
293
330
1F
100
AcDbEntity
  8
0
  6
Continuous
 62
     7
370
    25
100
AcDbLine
 10
-147.6214716228
 20
-383.0900917907
 30
0.0
 11
-147.6214716228
 21
-388.0900917907
 31
0.0
  0
LINE
  5
294
330
1F
100
AcDbEntity
  8
0
  6
Continuous
 62
     7
370
    25
100
AcDbLine
 10
-147.6214716228
 20
-388.0900917907
 30
0.0
 11
-134.2225486484
 21
-388.0900917907
 31
0.0
  0
LINE
  5
295
330
1F
100
AcDbEntity
  8
0
  6
Continuous
 62
     7
370
    25
100
AcDbLine
 10
-134.2502087059
 20
-329.9392188326
 30
0.0
 11
-134.2502087059
 21
-324.9392188326
 31
0.0
  0
LINE
  5
296
330
1F
100
AcDbEntity
  8
0
  6
Continuous
 62
     7
370
    25
100
AcDbLine
 10
-147.6491316803
 20
-324.9392188326
 30
0.0
 11
-134.2502087059
 21
-324.9392188326
 31
0.0
  0
LINE
  5
297
330
1F
100
AcDbEntity
  8
0
  6
Continuous
 62
     7
370
    25
100
AcDbLine
 10
-147.6491316803
 20
-324.9392188326
 30
0.0
 11
-147.6491316803
 21
-329.9392188326
 31
0.0
  0
LINE
  5
298
330
1F
100
AcDbEntity
  8
0
  6
Continuous
 62
     7
370
    25
100
AcDbLine
 10
-147.6491316803
 20
-329.9392188326
 30
0.0
 11
-134.2502087059
 21
-329.9392188326
 31
0.0
  0
LINE
  5
299
330
1F
100
AcDbEntity
  8
0
  6
Continuous
 62
     7
370
    25
100
AcDbLine
 10
-22.0
 20
-496.9101749447
 30
0.0
 11
-10.0
 21
-496.9101749447
 31
0.0
  0
LINE
  5
29A
330
1F
100
AcDbEntity
  8
0
  6
Continuous
 62
     7
370
    25
100
AcDbLine
 10
-22.0
 20
-501.9101749447
 30
0.0
 11
-22.0
 21
-496.9101749447
 31
0.0
  0
LINE
  5
29B
330
1F
100
AcDbEntity
  8
0
  6
Continuous
 62
     7
370
    25
100
AcDbLine
 10
-10.0
 20
-501.9101749447
 30
0.0
 11
-22.0
 21
-501.9101749447
 31
0.0
  0
LINE
  5
29C
330
1F
100
AcDbEntity
  8
0
  6
Continuous
 62
     7
370
    25
100
AcDbLine
 10
-10.0
 20
-496.9101749447
 30
0.0
 11
-10.0
 21
-501.9101749447
 31
0.0
  0
LINE
  5
29D
330
1F
100
AcDbEntity
  8
0
  6
Continuous
 62
     7
370
    25
100
AcDbLine
 10
-178.0
 20
-496.9101749447
 30
0.0
 11
-178.0
 21
-501.9101749447
 31
0.0
  0
LINE
  5
29E
330
1F
100
AcDbEntity
  8
0
  6
Continuous
 62
     7
370
    25
100
AcDbLine
 10
-190.0
 20
-496.9101749447
 30
0.0
 11
-178.0
 21
-496.9101749447
 31
0.0
  0
LINE
  5
29F
330
1F
100
AcDbEntity
  8
0
  6
Continuous
 62
     7
370
    25
100
AcDbLine
 10
-190.0
 20
-501.9101749447
 30
0.0
 11
-190.0
 21
-496.9101749447
 31
0.0
  0
LINE
  5
2A0
330
1F
100
AcDbEntity
  8
0
  6
Continuous
 62
     7
370
    25
100
AcDbLine
 10
-178.0
 20
-501.9101749447
 30
0.0
 11
-190.0
 21
-501.9101749447
 31
0.0
  0
LINE
  5
2A1
330
1F
100
AcDbEntity
  8
0
  6
Continuous
 62
     7
370
    25
100
AcDbLine
 10
-200.0
 20
-609.9101749447
 30
0.0
 11
-200.0
 21
-498.5735749447
 31
0.0
  0
LINE
  5
2A2
330
1F
100
AcDbEntity
  8
0
  6
Continuous
 62
     7
370
    25
100
AcDbLine
 10
-200.0
 20
-498.5735749447
 30
0.0
 11
-209.5550874724
 21
-498.5735749447
 31
0.0
  0
LINE
  5
2A3
330
1F
100
AcDbEntity
  8
0
  6
Continuous
 62
     7
370
    25
100
AcDbLine
 10
-209.5550874724
 20
-498.5735749447
 30
0.0
 11
-209.5550874724
 21
-300.2467749447
 31
0.0
  0
LINE
  5
2A4
330
1F
100
AcDbEntity
  8
0
  6
Continuous
 62
     7
370
    25
100
AcDbLine
 10
-209.5550874724
 20
-300.2467749447
 30
0.0
 11
-200.0
 21
-300.2467749447
 31
0.0
  0
LINE
  5
2A5
330
1F
100
AcDbEntity
  8
0
  6
Continuous
 62
     7
370
    25
100
AcDbLine
 10
-200.0
 20
-300.2467749447
 30
0.0
 11
-200.0
 21
-280.2550874724
 31
0.0
  0
LINE
  5
2A6
330
1F
100
AcDbEntity
  8
0
  6
Continuous
 62
     7
370
    25
100
AcDbLine
 10
-198.3634
 20
-280.2550874724
 30
0.0
 11
-200.0
 21
-280.2550874724
 31
0.0
  0
LINE
  5
2A7
330
1F
100
AcDbEntity
  8
0
  6
Continuous
 62
     7
370
    25
100
AcDbLine
 10
-198.3634
 20
-279.9550874724
 30
0.0
 11
-198.3634
 21
-280.2550874724
 31
0.0
  0
LINE
  5
2A8
330
1F
100
AcDbEntity
  8
0
  6
Continuous
 62
     7
370
    25
100
AcDbLine
 10
-203.5550874724
 20
-279.9550874724
 30
0.0
 11
-198.3634
 21
-279.9550874724
 31
0.0
  0
LINE
  5
2A9
330
1F
100
AcDbEntity
  8
0
  6
Continuous
 62
     7
370
    25
100
AcDbLine
 10
-203.5550874724
 20
-219.9550874724
 30
0.0
 11
-203.5550874724
 21
-279.9550874724
 31
0.0
  0
LINE
  5
2AA
330
1F
100
AcDbEntity
  8
0
  6
Continuous
 62
     7
370
    25
100
AcDbLine
 10
-198.3634
 20
-219.9550874724
 30
0.0
 11
-203.5550874724
 21
-219.9550874724
 31
0.0
  0
LINE
  5
2AB
330
1F
100
AcDbEntity
  8
0
  6
Continuous
 62
     7
370
    25
100
AcDbLine
 10
-198.3634
 20
-219.6550874724
 30
0.0
 11
-198.3634
 21
-219.9550874724
 31
0.0
  0
LINE
  5
2AC
330
1F
100
AcDbEntity
  8
0
  6
Continuous
 62
     7
370
    25
100
AcDbLine
 10
-200.0
 20
-219.6550874724
 30
0.0
 11
-198.3634
 21
-219.6550874724
 31
0.0
  0
LINE
  5
2AD
330
1F
100
AcDbEntity
  8
0
  6
Continuous
 62
     7
370
    25
100
AcDbLine
 10
-200.0
 20
-219.6550874724
 30
0.0
 11
-200.0
 21
-198.9101749447
 31
0.0
  0
LINE
  5
2AE
330
1F
100
AcDbEntity
  8
0
  6
Continuous
 62
     7
370
    25
100
AcDbLine
 10
-200.0
 20
-198.9101749447
 30
0.0
 11
-190.0
 21
-198.9101749447
 31
0.0
  0
LINE
  5
2AF
330
1F
100
AcDbEntity
  8
0
  6
Continuous
 62
     7
370
    25
100
AcDbLine
 10
-190.0
 20
-198.9101749447
 30
0.0
 11
-190.0
 21
-193.9101749447
 31
0.0
  0
LINE
  5
2B0
330
1F
100
AcDbEntity
  8
0
  6
Continuous
 62
     7
370
    25
100
AcDbLine
 10
-185.0
 20
-188.9101749447
 30
0.0
 11
-15.0
 21
-188.9101749447
 31
0.0
  0
LINE
  5
2B1
330
1F
100
AcDbEntity
  8
0
  6
Continuous
 62
     7
370
    25
100
AcDbLine
 10
-10.0
 20
-193.9101749447
 30
0.0
 11
-10.0
 21
-198.9101749447
 31
0.0
  0
LINE
  5
2B2
330
1F
100
AcDbEntity
  8
0
  6
Continuous
 62
     7
370
    25
100
AcDbLine
 10
-10.0
 20
-198.9101749447
 30
0.0
 11
0.0
 21
-198.9101749447
 31
0.0
  0
LINE
  5
2B3
330
1F
100
AcDbEntity
  8
0
  6
Continuous
 62
     7
370
    25
100
AcDbLine
 10
0.0
 20
-198.9101749447
 30
0.0
 11
0.0
 21
-219.6550874724
 31
0.0
  0
LINE
  5
2B4
330
1F
100
AcDbEntity
  8
0
  6
Continuous
 62
     7
370
    25
100
AcDbLine
 10
-1.6366
 20
-219.6550874724
 30
0.0
 11
0.0
 21
-219.6550874724
 31
0.0
  0
LINE
  5
2B5
330
1F
100
AcDbEntity
  8
0
  6
Continuous
 62
     7
370
    25
100
AcDbLine
 10
-1.6366
 20
-219.9550874724
 30
0.0
 11
-1.6366
 21
-219.6550874724
 31
0.0
  0
LINE
  5
2B6
330
1F
100
AcDbEntity
  8
0
  6
Continuous
 62
     7
370
    25
100
AcDbLine
 10
3.5550874724
 20
-219.9550874724
 30
0.0
 11
-1.6366
 21
-219.9550874724
 31
0.0
  0
LINE
  5
2B7
330
1F
100
AcDbEntity
  8
0
  6
Continuous
 62
     7
370
    25
100
AcDbLine
 10
3.5550874724
 20
-279.9550874724
 30
0.0
 11
3.5550874724
 21
-219.9550874724
 31
0.0
  0
LINE
  5
2B8
330
1F
100
AcDbEntity
  8
0
  6
Continuous
 62
     7
370
    25
100
AcDbLine
 10
-1.6366
 20
-279.9550874724
 30
0.0
 11
3.5550874724
 21
-279.9550874724
 31
0.0
  0
LINE
  5
2B9
330
1F
100
AcDbEntity
  8
0
  6
Continuous
 62
     7
370
    25
100
AcDbLine
 10
-1.6366
 20
-280.2550874724
 30
0.0
 11
-1.6366
 21
-279.9550874724
 31
0.0
  0
LINE
  5
2BA
330
1F
100
AcDbEntity
  8
0
  6
Continuous
 62
     7
370
    25
100
AcDbLine
 10
0.0
 20
-280.2550874724
 30
0.0
 11
-1.6366
 21
-280.2550874724
 31
0.0
  0
LINE
  5
2BB
330
1F
100
AcDbEntity
  8
0
  6
Continuous
 62
     7
370
    25
100
AcDbLine
 10
0.0
 20
-280.2550874724
 30
0.0
 11
0.0
 21
-300.2467749447
 31
0.0
  0
LINE
  5
2BC
330
1F
100
AcDbEntity
  8
0
  6
Continuous
 62
     7
370
    25
100
AcDbLine
 10
0.0
 20
-300.2467749447
 30
0.0
 11
9.5550874724
 21
-300.2467749447
 31
0.0
  0
LINE
  5
2BD
330
1F
100
AcDbEntity
  8
0
  6
Continuous
 62
     7
370
    25
100
AcDbLine
 10
9.5550874724
 20
-300.2467749447
 30
0.0
 11
9.5550874724
 21
-498.5735749447
 31
0.0
  0
LINE
  5
2BE
330
1F
100
AcDbEntity
  8
0
  6
Continuous
 62
     7
370
    25
100
AcDbLine
 10
9.5550874724
 20
-498.5735749447
 30
0.0
 11
0.0
 21
-498.5735749447
 31
0.0
  0
LINE
  5
2BF
330
1F
100
AcDbEntity
  8
0
  6
Continuous
 62
     7
370
    25
100
AcDbLine
 10
0.0
 20
-498.5735749447
 30
0.0
 11
0.0
 21
-609.9101749447
 31
0.0
  0
LINE
  5
2C0
330
1F
100
AcDbEntity
  8
0
  6
Continuous
 62
     7
370
    25
100
AcDbLine
 10
0.0
 20
-609.9101749447
 30
0.0
 11
-200.0
 21
-609.9101749447
 31
0.0
  0
LINE
  5
2C1
330
1F
100
AcDbEntity
  8
0
  6
Continuous
 62
     7
370
    25
100
AcDbLine
 10
-135.3992753706
 20
-324.9392188326
 30
0.0
 11
-135.3992753706
 21
-329.9392188326
 31
0.0
  0
LINE
  5
2C2
330
1F
100
AcDbEntity
  8
0
  6
Continuous
 62
     7
370
    25
100
AcDbLine
 10
-146.5000650157
 20
-329.9392188326
 30
0.0
 11
-146.5000650157
 21
-324.9392188326
 31
0.0
  0
LINE
  5
2C3
330
1F
100
AcDbEntity
  8
0
  6
Continuous
 62
     7
370
    25
100
AcDbLine
 10
-54.5867066512
 20
-324.9516871245
 30
0.0
 11
-54.5867066512
 21
-329.9516871245
 31
0.0
  0
LINE
  5
2C4
330
1F
100
AcDbEntity
  8
0
  6
Continuous
 62
     7
370
    25
100
AcDbLine
 10
-65.6874962963
 20
-329.9516871245
 30
0.0
 11
-65.6874962963
 21
-324.9516871245
 31
0.0
  0
LINE
  5
2C5
330
1F
100
AcDbEntity
  8
0
  6
Continuous
 62
     7
370
    25
100
AcDbLine
 10
-146.4724049582
 20
-388.0900917907
 30
0.0
 11
-146.4724049582
 21
-383.0900917907
 31
0.0
  0
LINE
  5
2C6
330
1F
100
AcDbEntity
  8
0
  6
Continuous
 62
     7
370
    25
100
AcDbLine
 10
-135.3716153131
 20
-383.0900917907
 30
0.0
 11
-135.3716153131
 21
-388.0900917907
 31
0.0
  0
LINE
  5
2C7
330
1F
100
AcDbEntity
  8
0
  6
Continuous
 62
     7
370
    25
100
AcDbLine
 10
-65.6589042014
 20
-388.0704217439
 30
0.0
 11
-65.6589042014
 21
-383.0704217439
 31
0.0
  0
LINE
  5
2C8
330
1F
100
AcDbEntity
  8
0
  6
Continuous
 62
     7
370
    25
100
AcDbLine
 10
-54.5581145563
 20
-383.0704217439
 30
0.0
 11
-54.5581145563
 21
-388.0704217439
 31
0.0
  0
LINE
  5
2C9
330
1F
100
AcDbEntity
  8
0
  6
Continuous
 62
     7
370
    25
100
AcDbLine
 10
-138.0063319329
 20
-329.9392188326
 30
0.0
 11
-138.0063319329
 21
-324.9392188326
 31
0.0
  0
LINE
  5
2CA
330
1F
100
AcDbEntity
  8
0
  6
Continuous
 62
     7
370
    25
100
AcDbLine
 10
-143.8930084534
 20
-324.9392188326
 30
0.0
 11
-143.8930084534
 21
-329.9392188326
 31
0.0
  0
LINE
  5
2CB
330
1F
100
AcDbEntity
  8
0
  6
Continuous
 62
     7
370
    25
100
AcDbLine
 10
-63.080439734
 20
-324.9516871245
 30
0.0
 11
-63.080439734
 21
-329.9516871245
 31
0.0
  0
LINE
  5
2CC
330
1F
100
AcDbEntity
  8
0
  6
Continuous
 62
     7
370
    25
100
AcDbLine
 10
-57.1937632135
 20
-329.9516871245
 30
0.0
 11
-57.1937632135
 21
-324.9516871245
 31
0.0
  0
LINE
  5
2CD
330
1F
100
AcDbEntity
  8
0
  6
Continuous
 62
     7
370
    25
100
AcDbLine
 10
-143.8653483959
 20
-383.0900917907
 30
0.0
 11
-143.8653483959
 21
-388.0900917907
 31
0.0
  0
LINE
  5
2CE
330
1F
100
AcDbEntity
  8
0
  6
Continuous
 62
     7
370
    25
100
AcDbLine
 10
-137.9786718754
 20
-388.0900917907
 30
0.0
 11
-137.9786718754
 21
-383.0900917907
 31
0.0
  0
LINE
  5
2CF
330
1F
100
AcDbEntity
  8
0
  6
Continuous
 62
     7
370
    25
100
AcDbLine
 10
-57.1651711186
 20
-388.0704217439
 30
0.0
 11
-57.1651711186
 21
-383.0704217439
 31
0.0
  0
LINE
  5
2D0
330
1F
100
AcDbEntity
  8
0
  6
Continuous
 62
     7
370
    25
100
AcDbLine
 10
-63.0518476391
 20
-383.0704217439
 30
0.0
 11
-63.0518476391
 21
-388.0704217439
 31
0.0
  0
LINE
  5
2D1
330
1F
100
AcDbEntity
  8
0
  6
Continuous
 62
     7
370
    25
100
AcDbLine
 10
-138.772376376
 20
-324.9392188326
 30
0.0
 11
-138.772376376
 21
-329.9392188326
 31
0.0
  0
LINE
  5
2D2
330
1F
100
AcDbEntity
  8
0
  6
Continuous
 62
     7
370
    25
100
AcDbLine
 10
-143.1269640103
 20
-329.9392188326
 30
0.0
 11
-143.1269640103
 21
-324.9392188326
 31
0.0
  0
LINE
  5
2D3
330
1F
100
AcDbEntity
  8
0
  6
Continuous
 62
     7
370
    25
100
AcDbLine
 10
-57.9598076566
 20
-324.9516871245
 30
0.0
 11
-57.9598076566
 21
-329.9516871245
 31
0.0
  0
LINE
  5
2D4
330
1F
100
AcDbEntity
  8
0
  6
Continuous
 62
     7
370
    25
100
AcDbLine
 10
-62.3143952909
 20
-329.9516871245
 30
0.0
 11
-62.3143952909
 21
-324.9516871245
 31
0.0
  0
LINE
  5
2D5
330
1F
100
AcDbEntity
  8
0
  6
Continuous
 62
     7
370
    25
100
AcDbLine
 10
-143.0993039527
 20
-388.0900917907
 30
0.0
 11
-143.0993039527
 21
-383.0900917907
 31
0.0
  0
LINE
  5
2D6
330
1F
100
AcDbEntity
  8
0
  6
Continuous
 62
     7
370
    25
100
AcDbLine
 10
-138.7447163185
 20
-383.0900917907
 30
0.0
 11
-138.7447163185
 21
-388.0900917907
 31
0.0
  0
LINE
  5
2D7
330
1F
100
AcDbEntity
  8
0
  6
Continuous
 62
     7
370
    25
100
AcDbLine
 10
-57.9312155617
 20
-383.0704217439
 30
0.0
 11
-57.9312155617
 21
-388.0704217439
 31
0.0
  0
LINE
  5
2D8
330
1F
100
AcDbEntity
  8
0
  6
Continuous
 62
     7
370
    25
100
AcDbLine
 10
-62.285803196
 20
-388.0704217439
 30
0.0
 11
-62.285803196
 21
-383.0704217439
 31
0.0
  0
ARC
  5
2D9
330
1F
100
AcDbEntity
  8
0
  6
Continuous
 62
     7
370
    25
100
AcDbCircle
 10
-71.0
 20
-529.7998923792
 30
0.0
 40
1.500000000000048
100
AcDbArc
 50
278.6237202096
 51
0.0
  0
ARC
  5
2DA
330
1F
100
AcDbEntity
  8
0
  6
Continuous
 62
     7
370
    25
100
AcDbCircle
 10
-71.0
 20
-527.2745432353
 30
0.0
 40
1.500000000000114
100
AcDbArc
 50
0.0
 51
97.6592149191
  0
ARC
  5
2DB
330
1F
100
AcDbEntity
  8
0
  6
Continuous
 62
     7
370
    25
100
AcDbCircle
 10
-81.6464761921
 20
-531.6844580655
 30
0.0
 40
1.500000000000034
100
AcDbArc
 50
127.3407840122
 51
225.0
  0
ARC
  5
2DC
330
1F
100
AcDbEntity
  8
0
  6
Continuous
 62
     7
370
    25
100
AcDbCircle
 10
-79.8607846875
 20
-533.4701495701
 30
0.0
 40
1.499999999999706
100
AcDbArc
 50
225.0
 51
306.3762791975
  0
ARC
  5
2DD
330
1F
100
AcDbEntity
  8
0
  6
Continuous
 62
     7
370
    25
100
AcDbCircle
 10
-56.1392153125
 20
-533.4701495701
 30
0.0
 40
1.500000000000339
100
AcDbArc
 50
233.6237201657
 51
315.0
  0
ARC
  5
2DE
330
1F
100
AcDbEntity
  8
0
  6
Continuous
 62
     7
370
    25
100
AcDbCircle
 10
-54.3535238079
 20
-531.6844580655
 30
0.0
 40
1.499999999999897
100
AcDbArc
 50
315.0
 51
52.6592149191
  0
ARC
  5
2DF
330
1F
100
AcDbEntity
  8
0
  6
Continuous
 62
     7
370
    25
100
AcDbCircle
 10
-65.0
 20
-527.2745432353
 30
0.0
 40
1.500000000000128
100
AcDbArc
 50
82.3407839408
 51
180.0
  0
ARC
  5
2E0
330
1F
100
AcDbEntity
  8
0
  6
Continuous
 62
     7
370
    25
100
AcDbCircle
 10
-65.0
 20
-529.7998923792
 30
0.0
 40
1.500000000000071
100
AcDbArc
 50
180.0
 51
261.3762791975
  0
ARC
  5
2E1
330
1F
100
AcDbEntity
  8
0
  6
Continuous
 62
     7
370
    25
100
AcDbCircle
 10
-44.0613456338
 20
-529.8775612656
 30
0.0
 40
1.500000000000097
100
AcDbArc
 50
39.4464111885
 51
135.0
  0
ARC
  5
2E2
330
1F
100
AcDbEntity
  8
0
  6
Continuous
 62
     7
370
    25
100
AcDbCircle
 10
-46.5493683072
 20
-532.365583939
 30
0.0
 40
1.500000000000308
100
AcDbArc
 50
135.0
 51
218.7380314484
  0
ARC
  5
2E3
330
1F
100
AcDbEntity
  8
0
  6
Continuous
 62
     7
370
    25
100
AcDbCircle
 10
-40.6642257385
 20
-546.5735749447
 30
0.0
 40
1.500000000000149
100
AcDbArc
 50
186.2619679434
 51
270.0
  0
ARC
  5
2E4
330
1F
100
AcDbEntity
  8
0
  6
Continuous
 62
     7
370
    25
100
AcDbCircle
 10
-37.1456303303
 20
-546.5735749447
 30
0.0
 40
1.499999999999773
100
AcDbArc
 50
270.0
 51
5.5535888115
  0
ARC
  5
2E5
330
1F
100
AcDbEntity
  8
0
  6
Continuous
 62
     7
370
    25
100
AcDbCircle
 10
-51.8965746254
 20
-561.4343596322
 30
0.0
 40
1.499999999999942
100
AcDbArc
 50
143.6237201657
 51
225.0
  0
ARC
  5
2E6
330
1F
100
AcDbEntity
  8
0
  6
Continuous
 62
     7
370
    25
100
AcDbCircle
 10
-50.1108831208
 20
-563.2200511368
 30
0.0
 40
1.50000000000005
100
AcDbArc
 50
225.0
 51
322.6592149191
  0
ARC
  5
2E7
330
1F
100
AcDbEntity
  8
0
  6
Continuous
 62
     7
370
    25
100
AcDbCircle
 10
-45.7009682906
 20
-552.5735749447
 30
0.0
 40
1.499999999999886
100
AcDbArc
 50
352.3407840122
 51
90.0
  0
ARC
  5
2E8
330
1F
100
AcDbEntity
  8
0
  6
Continuous
 62
     7
370
    25
100
AcDbCircle
 10
-48.2263174345
 20
-552.5735749447
 30
0.0
 40
1.500000000000114
100
AcDbArc
 50
90.0
 51
171.3762791975
  0
ARC
  5
2E9
330
1F
100
AcDbEntity
  8
0
  6
Continuous
 62
     7
370
    25
100
AcDbCircle
 10
-65.0
 20
-569.3472575102
 30
0.0
 40
1.499999999999915
100
AcDbArc
 50
98.6237201657
 51
180.0
  0
ARC
  5
2EA
330
1F
100
AcDbEntity
  8
0
  6
Continuous
 62
     7
370
    25
100
AcDbCircle
 10
-65.0
 20
-571.8726066541
 30
0.0
 40
1.500000000000121
100
AcDbArc
 50
180.0
 51
277.6592149191
  0
ARC
  5
2EB
330
1F
100
AcDbEntity
  8
0
  6
Continuous
 62
     7
370
    25
100
AcDbCircle
 10
-54.3535238079
 20
-567.4626918239
 30
0.0
 40
1.499999999999926
100
AcDbArc
 50
307.3407840122
 51
45.0
  0
ARC
  5
2EC
330
1F
100
AcDbEntity
  8
0
  6
Continuous
 62
     7
370
    25
100
AcDbCircle
 10
-56.1392153125
 20
-565.6770003193
 30
0.0
 40
1.499999999999756
100
AcDbArc
 50
45.0
 51
126.3762791975
  0
ARC
  5
2ED
330
1F
100
AcDbEntity
  8
0
  6
Continuous
 62
     7
370
    25
100
AcDbCircle
 10
-79.8607846875
 20
-565.6770003193
 30
0.0
 40
1.499999999999844
100
AcDbArc
 50
53.6237201657
 51
135.0
  0
ARC
  5
2EE
330
1F
100
AcDbEntity
  8
0
  6
Continuous
 62
     7
370
    25
100
AcDbCircle
 10
-81.6464761921
 20
-567.4626918239
 30
0.0
 40
1.499999999999746
100
AcDbArc
 50
135.0
 51
232.6592149191
  0
ARC
  5
2EF
330
1F
100
AcDbEntity
  8
0
  6
Continuous
 62
     7
370
    25
100
AcDbCircle
 10
-71.0
 20
-571.8726066541
 30
0.0
 40
1.500000000000159
100
AcDbArc
 50
262.3407840123
 51
360.0
  0
ARC
  5
2F0
330
1F
100
AcDbEntity
  8
0
  6
Continuous
 62
     7
370
    25
100
AcDbCircle
 10
-71.0
 20
-569.3472575102
 30
0.0
 40
1.500000000000291
100
AcDbArc
 50
0.0
 51
81.3762791975
  0
ARC
  5
2F1
330
1F
100
AcDbEntity
  8
0
  6
Continuous
 62
     7
370
    25
100
AcDbCircle
 10
-91.9386543662
 20
-569.2695886238
 30
0.0
 40
1.500000000000173
100
AcDbArc
 50
219.4464111885
 51
315.0
  0
ARC
  5
2F2
330
1F
100
AcDbEntity
  8
0
  6
Continuous
 62
     7
370
    25
100
AcDbCircle
 10
-89.4506316928
 20
-566.7815659504
 30
0.0
 40
1.500000000000187
100
AcDbArc
 50
315.0
 51
38.7380314484
  0
ARC
  5
2F3
330
1F
100
AcDbEntity
  8
0
  6
Continuous
 62
     7
370
    25
100
AcDbCircle
 10
-95.3357742615
 20
-552.5735749447
 30
0.0
 40
1.499999999999891
100
AcDbArc
 50
6.2619679434
 51
90.0
  0
ARC
  5
2F4
330
1F
100
AcDbEntity
  8
0
  6
Continuous
 62
     7
370
    25
100
AcDbCircle
 10
-98.8543696697
 20
-552.5735749447
 30
0.0
 40
1.5
100
AcDbArc
 50
90.0
 51
185.5535888115
  0
ARC
  5
2F5
330
1F
100
AcDbEntity
  8
0
  6
Continuous
 62
     7
370
    25
100
AcDbCircle
 10
-84.1034253746
 20
-537.7127902572
 30
0.0
 40
1.50000000000038
100
AcDbArc
 50
323.6237201657
 51
45.0
  0
ARC
  5
2F6
330
1F
100
AcDbEntity
  8
0
  6
Continuous
 62
     7
370
    25
100
AcDbCircle
 10
-85.8891168792
 20
-535.9270987527
 30
0.0
 40
1.500000000000183
100
AcDbArc
 50
45.0
 51
142.6592149191
  0
ARC
  5
2F7
330
1F
100
AcDbEntity
  8
0
  6
Continuous
 62
     7
370
    25
100
AcDbCircle
 10
-90.2990317094
 20
-546.5735749447
 30
0.0
 40
1.500000000000227
100
AcDbArc
 50
172.3407840123
 51
270.0
  0
ARC
  5
2F8
330
1F
100
AcDbEntity
  8
0
  6
Continuous
 62
     7
370
    25
100
AcDbCircle
 10
-87.7736825655
 20
-546.5735749447
 30
0.0
 40
1.499999999999801
100
AcDbArc
 50
270.0
 51
351.3762791975
  0
ARC
  5
2F9
330
1F
100
AcDbEntity
  8
0
  6
Continuous
 62
     7
370
    25
100
AcDbCircle
 10
-48.3039863209
 20
-525.6349205785
 30
0.0
 40
1.499999999999932
100
AcDbArc
 50
315.0
 51
50.5535888115
  0
ARC
  5
2FA
330
1F
100
AcDbEntity
  8
0
  6
Continuous
 62
     7
370
    25
100
AcDbCircle
 10
-65.0
 20
-518.719205275
 30
0.0
 40
1.499999999999602
100
AcDbArc
 50
84.4464111885
 51
180.0
  0
ARC
  5
2FB
330
1F
100
AcDbEntity
  8
0
  6
Continuous
 62
     7
370
    25
100
AcDbCircle
 10
-65.0
 20
-522.2378006832
 30
0.0
 40
1.500000000000146
100
AcDbArc
 50
180.0
 51
263.7380314484
  0
ARC
  5
2FC
330
1F
100
AcDbEntity
  8
0
  6
Continuous
 62
     7
370
    25
100
AcDbCircle
 10
-50.7920089943
 20
-528.1229432519
 30
0.0
 40
1.500000000000002
100
AcDbArc
 50
231.2619679434
 51
315.0
  0
ARC
  5
2FD
330
1F
100
AcDbEntity
  8
0
  6
Continuous
 62
     7
370
    25
100
AcDbCircle
 10
-87.6960136791
 20
-573.5122293109
 30
0.0
 40
1.499999999999841
100
AcDbArc
 50
135.0
 51
230.5535888115
  0
ARC
  5
2FE
330
1F
100
AcDbEntity
  8
0
  6
Continuous
 62
     7
370
    25
100
AcDbCircle
 10
-71.0
 20
-580.4279446144
 30
0.0
 40
1.500000000000123
100
AcDbArc
 50
264.4464111885
 51
0.0
  0
ARC
  5
2FF
330
1F
100
AcDbEntity
  8
0
  6
Continuous
 62
     7
370
    25
100
AcDbCircle
 10
-71.0
 20
-576.9093492062
 30
0.0
 40
1.499999999999774
100
AcDbArc
 50
360.0
 51
83.7380314484
  0
ARC
  5
300
330
1F
100
AcDbEntity
  8
0
  6
Continuous
 62
     7
370
    25
100
AcDbCircle
 10
-85.2079910057
 20
-571.0242066376
 30
0.0
 40
1.500000000000173
100
AcDbArc
 50
51.2619679434
 51
135.0
  0
ARC
  5
301
330
1F
100
AcDbEntity
  8
0
  6
Continuous
 62
     7
370
    25
100
AcDbCircle
 10
-65.0
 20
-580.4279446144
 30
0.0
 40
1.500000000000018
100
AcDbArc
 50
180.0
 51
275.5535888115
  0
ARC
  5
302
330
1F
100
AcDbEntity
  8
0
  6
Continuous
 62
     7
370
    25
100
AcDbCircle
 10
-48.3039863209
 20
-573.5122293109
 30
0.0
 40
1.499999999999801
100
AcDbArc
 50
309.4464111885
 51
45.0
  0
ARC
  5
303
330
1F
100
AcDbEntity
  8
0
  6
Continuous
 62
     7
370
    25
100
AcDbCircle
 10
-50.7920089943
 20
-571.0242066376
 30
0.0
 40
1.499999999999811
100
AcDbArc
 50
45.0
 51
128.7380314484
  0
ARC
  5
304
330
1F
100
AcDbEntity
  8
0
  6
Continuous
 62
     7
370
    25
100
AcDbCircle
 10
-65.0
 20
-576.9093492062
 30
0.0
 40
1.499999999999744
100
AcDbArc
 50
96.2619679434
 51
180.0
  0
ARC
  5
305
330
1F
100
AcDbEntity
  8
0
  6
Continuous
 62
     7
370
    25
100
AcDbCircle
 10
-71.0
 20
-518.719205275
 30
0.0
 40
1.499999999999943
100
AcDbArc
 50
360.0
 51
95.5535888115
  0
ARC
  5
306
330
1F
100
AcDbEntity
  8
0
  6
Continuous
 62
     7
370
    25
100
AcDbCircle
 10
-87.6960136791
 20
-525.6349205785
 30
0.0
 40
1.499999999999883
100
AcDbArc
 50
129.4464111885
 51
225.0
  0
ARC
  5
307
330
1F
100
AcDbEntity
  8
0
  6
Continuous
 62
     7
370
    25
100
AcDbCircle
 10
-85.2079910057
 20
-528.1229432519
 30
0.0
 40
1.499999999999823
100
AcDbArc
 50
225.0
 51
308.7380314484
  0
ARC
  5
308
330
1F
100
AcDbEntity
  8
0
  6
Continuous
 62
     7
370
    25
100
AcDbCircle
 10
-71.0
 20
-522.2378006832
 30
0.0
 40
1.500000000000467
100
AcDbArc
 50
276.2619680079
 51
360.0
  0
ARC
  5
309
330
1F
100
AcDbEntity
  8
0
  6
Continuous
 62
     7
370
    25
100
AcDbCircle
 10
-51.8965746254
 20
-537.7127902572
 30
0.0
 40
1.499999999999881
100
AcDbArc
 50
135.0
 51
216.3762791975
  0
ARC
  5
30A
330
1F
100
AcDbEntity
  8
0
  6
Continuous
 62
     7
370
    25
100
AcDbCircle
 10
-48.2263174345
 20
-546.5735749447
 30
0.0
 40
1.500000000000368
100
AcDbArc
 50
188.6237201657
 51
270.0
  0
ARC
  5
30B
330
1F
100
AcDbEntity
  8
0
  6
Continuous
 62
     7
370
    25
100
AcDbCircle
 10
-45.7009682906
 20
-546.5735749447
 30
0.0
 40
1.499999999999773
100
AcDbArc
 50
270.0
 51
7.6592149191
  0
ARC
  5
30C
330
1F
100
AcDbEntity
  8
0
  6
Continuous
 62
     7
370
    25
100
AcDbCircle
 10
-50.1108831208
 20
-535.9270987527
 30
0.0
 40
1.499999999999952
100
AcDbArc
 50
37.3407840122
 51
135.0
  0
ARC
  5
30D
330
1F
100
AcDbEntity
  8
0
  6
Continuous
 62
     7
370
    25
100
AcDbCircle
 10
-44.0613456338
 20
-569.2695886238
 30
0.0
 40
1.500000000000013
100
AcDbArc
 50
225.0
 51
320.5535888115
  0
ARC
  5
30E
330
1F
100
AcDbEntity
  8
0
  6
Continuous
 62
     7
370
    25
100
AcDbCircle
 10
-37.1456303303
 20
-552.5735749447
 30
0.0
 40
1.49999999999989
100
AcDbArc
 50
354.4464111885
 51
90.0
  0
ARC
  5
30F
330
1F
100
AcDbEntity
  8
0
  6
Continuous
 62
     7
370
    25
100
AcDbCircle
 10
-40.6642257385
 20
-552.5735749447
 30
0.0
 40
1.499999999999547
100
AcDbArc
 50
90.0
 51
173.7380314484
  0
ARC
  5
310
330
1F
100
AcDbEntity
  8
0
  6
Continuous
 62
     7
370
    25
100
AcDbCircle
 10
-46.5493683072
 20
-566.7815659504
 30
0.0
 40
1.499999999999985
100
AcDbArc
 50
141.2619679434
 51
225.0
  0
ARC
  5
311
330
1F
100
AcDbEntity
  8
0
  6
Continuous
 62
     7
370
    25
100
AcDbCircle
 10
-91.9386543662
 20
-529.8775612656
 30
0.0
 40
1.500000000000125
100
AcDbArc
 50
45.0
 51
140.5535888115
  0
ARC
  5
312
330
1F
100
AcDbEntity
  8
0
  6
Continuous
 62
     7
370
    25
100
AcDbCircle
 10
-98.8543696697
 20
-546.5735749447
 30
0.0
 40
1.500000000000147
100
AcDbArc
 50
174.4464111885
 51
270.0
  0
ARC
  5
313
330
1F
100
AcDbEntity
  8
0
  6
Continuous
 62
     7
370
    25
100
AcDbCircle
 10
-95.3357742615
 20
-546.5735749447
 30
0.0
 40
1.500000000000342
100
AcDbArc
 50
270.0
 51
353.7380314484
  0
ARC
  5
314
330
1F
100
AcDbEntity
  8
0
  6
Continuous
 62
     7
370
    25
100
AcDbCircle
 10
-89.4506316928
 20
-532.365583939
 30
0.0
 40
1.500000000000256
100
AcDbArc
 50
321.2619679434
 51
45.0
  0
ARC
  5
315
330
1F
100
AcDbEntity
  8
0
  6
Continuous
 62
     7
370
    25
100
AcDbCircle
 10
-84.1034253746
 20
-561.4343596322
 30
0.0
 40
1.500000000000444
100
AcDbArc
 50
315.0
 51
36.3762791975
  0
ARC
  5
316
330
1F
100
AcDbEntity
  8
0
  6
Continuous
 62
     7
370
    25
100
AcDbCircle
 10
-87.7736825655
 20
-552.5735749447
 30
0.0
 40
1.499999999999664
100
AcDbArc
 50
8.6237201657
 51
90.0
  0
ARC
  5
317
330
1F
100
AcDbEntity
  8
0
  6
Continuous
 62
     7
370
    25
100
AcDbCircle
 10
-90.2990317094
 20
-552.5735749447
 30
0.0
 40
1.5
100
AcDbArc
 50
90.0
 51
187.6592149191
  0
ARC
  5
318
330
1F
100
AcDbEntity
  8
0
  6
Continuous
 62
     7
370
    25
100
AcDbCircle
 10
-85.8891168792
 20
-563.2200511368
 30
0.0
 40
1.500000000000113
100
AcDbArc
 50
217.3407840123
 51
315.0
  0
ARC
  5
319
330
1F
100
AcDbEntity
  8
0
  6
Continuous
 62
     7
370
    25
100
AcDbCircle
 10
-70.9999985677
 20
-534.8766327941
 30
0.0
 40
1.499998567730811
100
AcDbArc
 50
359.9998341145
 51
101.5379909062
  0
ARC
  5
31A
330
1F
100
AcDbEntity
  8
0
  6
Continuous
 62
     7
370
    25
100
AcDbCircle
 10
-76.2709840606
 20
-537.0599502194
 30
0.0
 40
1.499999984188562
100
AcDbArc
 50
123.462095199
 51
225.0000003458
  0
ARC
  5
31B
330
1F
100
AcDbEntity
  8
0
  6
Continuous
 62
     7
370
    25
100
AcDbCircle
 10
-73.7288155649
 20
-539.6021186927
 30
0.0
 40
1.499999999999798
100
AcDbArc
 50
225.0
 51
299.8760564325
  0
ARC
  5
31C
330
1F
100
AcDbEntity
  8
0
  6
Continuous
 62
     7
370
    25
100
AcDbCircle
 10
-71.0
 20
-538.4718062764
 30
0.0
 40
1.499999999999992
100
AcDbArc
 50
285.1239439759
 51
0.0
  0
ARC
  5
31D
330
1F
100
AcDbEntity
  8
0
  6
Continuous
 62
     7
370
    25
100
AcDbCircle
 10
-65.0000000158
 20
-534.8766371279
 30
0.0
 40
1.499999984188451
100
AcDbArc
 50
78.462095199
 51
180.0000003458
  0
ARC
  5
31E
330
1F
100
AcDbEntity
  8
0
  6
Continuous
 62
     7
370
    25
100
AcDbCircle
 10
-65.0
 20
-538.4718062764
 30
0.0
 40
1.499999999999929
100
AcDbArc
 50
180.0
 51
254.8760564325
  0
ARC
  5
31F
330
1F
100
AcDbEntity
  8
0
  6
Continuous
 62
     7
370
    25
100
AcDbCircle
 10
-62.2711844351
 20
-539.6021186927
 30
0.0
 40
1.5000000000006
100
AcDbArc
 50
240.123943976
 51
315.0
  0
ARC
  5
320
330
1F
100
AcDbEntity
  8
0
  6
Continuous
 62
     7
370
    25
100
AcDbCircle
 10
-59.7290118734
 20
-537.0599481565
 30
0.0
 40
1.49999856773165
100
AcDbArc
 50
314.9998341146
 51
56.5379909062
  0
ARC
  5
321
330
1F
100
AcDbEntity
  8
0
  6
Continuous
 62
     7
370
    25
100
AcDbCircle
 10
-55.4863752747
 20
-541.3025908842
 30
0.0
 40
1.499999984188372
100
AcDbArc
 50
33.462095199
 51
135.0000003458
  0
ARC
  5
322
330
1F
100
AcDbEntity
  8
0
  6
Continuous
 62
     7
370
    25
100
AcDbCircle
 10
-58.0285437479
 20
-543.8447593798
 30
0.0
 40
1.500000000000032
100
AcDbArc
 50
135.0
 51
209.8760564325
  0
ARC
  5
323
330
1F
100
AcDbEntity
  8
0
  6
Continuous
 62
     7
370
    25
100
AcDbCircle
 10
-56.8982313317
 20
-546.5735749447
 30
0.0
 40
1.500000000000341
100
AcDbArc
 50
195.1239439759
 51
270.0
  0
ARC
  5
324
330
1F
100
AcDbEntity
  8
0
  6
Continuous
 62
     7
370
    25
100
AcDbCircle
 10
-53.3030578494
 20
-546.573576377
 30
0.0
 40
1.499998567730432
100
AcDbArc
 50
269.9998341145
 51
11.5379909062
  0
ARC
  5
325
330
1F
100
AcDbEntity
  8
0
  6
Continuous
 62
     7
370
    25
100
AcDbCircle
 10
-53.3030621832
 20
-552.5735749289
 30
0.0
 40
1.499999984189504
100
AcDbArc
 50
348.4620951991
 51
90.0000003457
  0
ARC
  5
326
330
1F
100
AcDbEntity
  8
0
  6
Continuous
 62
     7
370
    25
100
AcDbCircle
 10
-56.8982313317
 20
-552.5735749447
 30
0.0
 40
1.500000000000135
100
AcDbArc
 50
90.0
 51
164.8760564325
  0
ARC
  5
327
330
1F
100
AcDbEntity
  8
0
  6
Continuous
 62
     7
370
    25
100
AcDbCircle
 10
-58.0285437479
 20
-555.3023905096
 30
0.0
 40
1.499999999999655
100
AcDbArc
 50
150.1239439759
 51
225.0
  0
ARC
  5
328
330
1F
100
AcDbEntity
  8
0
  6
Continuous
 62
     7
370
    25
100
AcDbCircle
 10
-55.4863732118
 20
-557.8445630713
 30
0.0
 40
1.499998567730678
100
AcDbArc
 50
224.9998341145
 51
326.5379909062
  0
ARC
  5
329
330
1F
100
AcDbEntity
  8
0
  6
Continuous
 62
     7
370
    25
100
AcDbCircle
 10
-59.7290159394
 20
-562.08719967
 30
0.0
 40
1.499999984190783
100
AcDbArc
 50
303.4620951991
 51
45.0000003457
  0
ARC
  5
32A
330
1F
100
AcDbEntity
  8
0
  6
Continuous
 62
     7
370
    25
100
AcDbCircle
 10
-62.2711844351
 20
-559.5450311968
 30
0.0
 40
1.499999999999942
100
AcDbArc
 50
45.0
 51
119.8760564325
  0
ARC
  5
32B
330
1F
100
AcDbEntity
  8
0
  6
Continuous
 62
     7
370
    25
100
AcDbCircle
 10
-65.0
 20
-560.675343613
 30
0.0
 40
1.500000000000161
100
AcDbArc
 50
105.1239439759
 51
180.0
  0
ARC
  5
32C
330
1F
100
AcDbEntity
  8
0
  6
Continuous
 62
     7
370
    25
100
AcDbCircle
 10
-65.0000014323
 20
-564.2705170953
 30
0.0
 40
1.499998567730577
100
AcDbArc
 50
179.9998341145
 51
281.5379909062
  0
ARC
  5
32D
330
1F
100
AcDbEntity
  8
0
  6
Continuous
 62
     7
370
    25
100
AcDbCircle
 10
-70.9999999842
 20
-564.2705127615
 30
0.0
 40
1.499999984188563
100
AcDbArc
 50
258.462095199
 51
0.0000003458
  0
ARC
  5
32E
330
1F
100
AcDbEntity
  8
0
  6
Continuous
 62
     7
370
    25
100
AcDbCircle
 10
-71.0
 20
-560.675343613
 30
0.0
 40
1.499999999999953
100
AcDbArc
 50
360.0
 51
74.8760564325
  0
ARC
  5
32F
330
1F
100
AcDbEntity
  8
0
  6
Continuous
 62
     7
370
    25
100
AcDbCircle
 10
-73.7288155649
 20
-559.5450311968
 30
0.0
 40
1.49999999999965
100
AcDbArc
 50
60.1239439759
 51
135.0
  0
ARC
  5
330
330
1F
100
AcDbEntity
  8
0
  6
Continuous
 62
     7
370
    25
100
AcDbCircle
 10
-76.2709881266
 20
-562.0872017329
 30
0.0
 40
1.499998567731875
100
AcDbArc
 50
134.9998341146
 51
236.5379909062
  0
ARC
  5
331
330
1F
100
AcDbEntity
  8
0
  6
Continuous
 62
     7
370
    25
100
AcDbCircle
 10
-80.5136267882
 20
-541.3025868181
 30
0.0
 40
1.499998567730728
100
AcDbArc
 50
44.9998341145
 51
146.5379909062
  0
ARC
  5
332
330
1F
100
AcDbEntity
  8
0
  6
Continuous
 62
     7
370
    25
100
AcDbCircle
 10
-82.6969378168
 20
-546.5735749605
 30
0.0
 40
1.499999984190595
100
AcDbArc
 50
168.4620951991
 51
270.0000003457
  0
ARC
  5
333
330
1F
100
AcDbEntity
  8
0
  6
Continuous
 62
     7
370
    25
100
AcDbCircle
 10
-79.1017686683
 20
-546.5735749447
 30
0.0
 40
1.499999999999662
100
AcDbArc
 50
270.0
 51
344.8760564325
  0
ARC
  5
334
330
1F
100
AcDbEntity
  8
0
  6
Continuous
 62
     7
370
    25
100
AcDbCircle
 10
-77.9714562521
 20
-543.8447593798
 30
0.0
 40
1.500000000000392
100
AcDbArc
 50
330.123943976
 51
45.0
  0
ARC
  5
335
330
1F
100
AcDbEntity
  8
0
  6
Continuous
 62
     7
370
    25
100
AcDbCircle
 10
-80.5136247253
 20
-557.8445590053
 30
0.0
 40
1.499999984190482
100
AcDbArc
 50
213.4620951991
 51
315.0000003457
  0
ARC
  5
336
330
1F
100
AcDbEntity
  8
0
  6
Continuous
 62
     7
370
    25
100
AcDbCircle
 10
-77.9714562521
 20
-555.3023905096
 30
0.0
 40
1.499999999999861
100
AcDbArc
 50
315.0
 51
29.8760564325
  0
ARC
  5
337
330
1F
100
AcDbEntity
  8
0
  6
Continuous
 62
     7
370
    25
100
AcDbCircle
 10
-79.1017686683
 20
-552.5735749447
 30
0.0
 40
1.500000000000342
100
AcDbArc
 50
15.1239439759
 51
90.0
  0
ARC
  5
338
330
1F
100
AcDbEntity
  8
0
  6
Continuous
 62
     7
370
    25
100
AcDbCircle
 10
-82.6969421506
 20
-552.5735735124
 30
0.0
 40
1.499998567731302
100
AcDbArc
 50
89.9998341146
 51
191.5379909062
  0
ARC
  5
339
330
1F
100
AcDbEntity
  8
0
  6
Continuous
 62
     7
370
    25
100
AcDbCircle
 10
-185.0
 20
-193.9101749447
 30
0.0
 40
5.0
100
AcDbArc
 50
90.0
 51
180.0
  0
ARC
  5
33A
330
1F
100
AcDbEntity
  8
0
  6
Continuous
 62
     7
370
    25
100
AcDbCircle
 10
-15.0
 20
-193.9101749447
 30
0.0
 40
5.000000000000028
100
AcDbArc
 50
0.0
 51
90.0
  0
MTEXT
  5
33C
330
1F
100
AcDbEntity
  8
0
  6
Continuous
 62
     7
100
AcDbMText
 10
-209.5550874724
 20
-610.9297413364
 30
0.0
 40
4.83362
 41
0.0
 71
     1
 72
     1
  1
SOLIDWORKS Educational Product.
  7
SLDTEXTSTYLE0
 73
     1
 44
1.0
  0
MTEXT
  5
33D
330
1F
100
AcDbEntity
  8
0
  6
Continuous
 62
     7
100
AcDbMText
 10
-209.5550874724
 20
-618.1801713364
 30
0.0
 40
4.83362
 41
0.0
 71
     1
 72
     1
  1
For Instructional Use Only.
  7
SLDTEXTSTYLE0
 73
     1
 44
1.0
  0
ENDSEC
  0
SECTION
  2
OBJECTS
  0
DICTIONARY
  5
C
330
0
100
AcDbDictionary
281
     1
  3
ACAD_GROUP
350
D
  3
ACAD_LAYOUT
350
1A
  3
ACAD_MLINESTYLE
350
17
  3
ACAD_PLOTSETTINGS
350
19
  3
ACAD_PLOTSTYLENAME
350
E
  3
ACAD_SCALELIST
350
47
  3
DWGPROPS
350
33E
  0
DICTIONARY
  5
D
102
{ACAD_REACTORS
330
C
102
}
330
C
100
AcDbDictionary
281
     1
  0
DICTIONARY
  5
1A
102
{ACAD_REACTORS
330
C
102
}
330
C
100
AcDbDictionary
281
     1
  3
Layout1
350
1E
  3
Layout2
350
26
  3
Model
350
22
  0
DICTIONARY
  5
17
102
{ACAD_REACTORS
330
C
102
}
330
C
100
AcDbDictionary
281
     1
  3
Standard
350
18
  0
DICTIONARY
  5
19
102
{ACAD_REACTORS
330
C
102
}
330
C
100
AcDbDictionary
281
     1
  0
ACDBDICTIONARYWDFLT
  5
E
102
{ACAD_REACTORS
330
C
102
}
330
C
100
AcDbDictionary
281
     1
  3
Normal
350
F
100
AcDbDictionaryWithDefault
340
F
  0
DICTIONARY
  5
47
102
{ACAD_REACTORS
330
C
102
}
330
C
100
AcDbDictionary
281
     1
  3
A0
350
48
  3
A1
350
49
  3
A2
350
4A
  3
A3
350
4B
  3
A4
350
4C
  3
A5
350
4D
  3
A6
350
4E
  3
A7
350
4F
  3
A8
350
50
  3
A9
350
51
  3
B0
350
52
  3
B1
350
53
  3
B2
350
54
  3
B3
350
55
  3
B4
350
56
  3
B5
350
57
  3
B6
350
58
  3
B7
350
59
  3
B8
350
5A
  3
B9
350
5B
  3
C0
350
5C
  3
C1
350
5D
  3
C2
350
5E
  3
C3
350
5F
  3
C4
350
60
  3
C5
350
61
  3
C6
350
62
  3
C7
350
63
  3
C8
350
64
  3
C9
350
65
  3
D0
350
66
  3
D1
350
67
  3
D2
350
68
  0
XRECORD
  5
33E
102
{ACAD_REACTORS
330
C
102
}
330
C
100
AcDbXrecord
280
     1
  1
DWGPROPS COOKIE
  2

  3

  4

  6

  7

  8
OSHADHA
  9

300
=
301
=
302
=
303
=
304
=
305
=
306
=
307
=
308
=
309
=
 40
0.0
 41
2460654.280548727
 42
2460654.280782454
  1

 90
        0
  0
LAYOUT
  5
1E
102
{ACAD_REACTORS
330
1A
102
}
330
1A
100
AcDbPlotSettings
  1

  2
none_device
  4

  6

 40
0.0
 41
0.0
 42
0.0
 43
0.0
 44
0.0
 45
0.0
 46
0.0
 47
0.0
 48
0.0
 49
0.0
140
0.0
141
0.0
142
1.0
143
1.0
 70
   688
 72
     1
 73
     0
 74
     5
  7

 75
    16
147
1.0
148
0.0
149
0.0
100
AcDbLayout
  1
Layout1
 70
     1
 71
     1
 10
0.0
 20
0.0
 11
420.0
 21
297.0
 12
0.0
 22
0.0
 32
0.0
 14
1.0000000000E+20
 24
1.0000000000E+20
 34
1.0000000000E+20
 15
-1.0000000000E+20
 25
-1.0000000000E+20
 35
-1.0000000000E+20
146
0.0
 13
0.0
 23
0.0
 33
0.0
 16
1.0
 26
0.0
 36
0.0
 17
0.0
 27
1.0
 37
0.0
 76
     0
330
1B
  0
LAYOUT
  5
26
102
{ACAD_REACTORS
330
1A
102
}
330
1A
100
AcDbPlotSettings
  1

  2
none_device
  4

  6

 40
0.0
 41
0.0
 42
0.0
 43
0.0
 44
0.0
 45
0.0
 46
0.0
 47
0.0
 48
0.0
 49
0.0
140
0.0
141
0.0
142
1.0
143
1.0
 70
   688
 72
     1
 73
     0
 74
     5
  7

 75
    16
147
1.0
148
0.0
149
0.0
100
AcDbLayout
  1
Layout2
 70
     1
 71
     2
 10
0.0
 20
0.0
 11
0.0
 21
0.0
 12
0.0
 22
0.0
 32
0.0
 14
0.0
 24
0.0
 34
0.0
 15
0.0
 25
0.0
 35
0.0
146
0.0
 13
0.0
 23
0.0
 33
0.0
 16
1.0
 26
0.0
 36
0.0
 17
0.0
 27
1.0
 37
0.0
 76
     0
330
23
  0
LAYOUT
  5
22
102
{ACAD_REACTORS
330
1A
102
}
330
1A
100
AcDbPlotSettings
  1

  2
none_device
  4
ANSI_A_(11.00_x_8.50_Inches)
  6

 40
6.35
 41
19.05
 42
6.35000508
 43
19.05000254
 44
279.4
 45
215.9
 46
184.1198311892
 47
291.679880447
 48
0.0
 49
0.0
140
0.0
141
0.0
142
0.0199881235
143
1.0
 70
  1696
 72
     0
 73
     0
 74
     0
  7

 75
     0
147
0.0179189148
148
-1300.4909072572
149
0.0
100
AcDbLayout
  1
Model
 70
     1
 71
     0
 10
0.0
 20
0.0
 11
420.0
 21
297.0
 12
0.0
 22
0.0
 32
0.0
 14
-209.5550874724
 24
-609.9101749447
 34
0.0
 15
9.5550874724
 25
-188.9101749447
 35
0.0
146
0.0
 13
0.0
 23
0.0
 33
0.0
 16
1.0
 26
0.0
 36
0.0
 17
0.0
 27
1.0
 37
0.0
 76
     0
330
1F
331
29
  0
MLINESTYLE
  5
18
102
{ACAD_REACTORS
330
17
102
}
330
17
100
AcDbMlineStyle
  2
Standard
 70
     0
  3

 62
   256
 51
90.0
 52
90.0
 71
     2
 49
0.5
 62
   256
  6
BYLAYER
 49
-0.5
 62
   256
  6
BYLAYER
  0
ACDBPLACEHOLDER
  5
F
102
{ACAD_REACTORS
330
E
102
}
330
E
  0
SCALE
  5
48
102
{ACAD_REACTORS
330
47
102
}
330
47
100
AcDbScale
 70
     0
300
1:1
140
1.0
141
1.0
290
     1
  0
SCALE
  5
49
102
{ACAD_REACTORS
330
47
102
}
330
47
100
AcDbScale
 70
     0
300
1:2
140
1.0
141
2.0
290
     0
  0
SCALE
  5
4A
102
{ACAD_REACTORS
330
47
102
}
330
47
100
AcDbScale
 70
     0
300
1:4
140
1.0
141
4.0
290
     0
  0
SCALE
  5
4B
102
{ACAD_REACTORS
330
47
102
}
330
47
100
AcDbScale
 70
     0
300
1:5
140
1.0
141
5.0
290
     0
  0
SCALE
  5
4C
102
{ACAD_REACTORS
330
47
102
}
330
47
100
AcDbScale
 70
     0
300
1:8
140
1.0
141
8.0
290
     0
  0
SCALE
  5
4D
102
{ACAD_REACTORS
330
47
102
}
330
47
100
AcDbScale
 70
     0
300
1:10
140
1.0
141
10.0
290
     0
  0
SCALE
  5
4E
102
{ACAD_REACTORS
330
47
102
}
330
47
100
AcDbScale
 70
     0
300
1:16
140
1.0
141
16.0
290
     0
  0
SCALE
  5
4F
102
{ACAD_REACTORS
330
47
102
}
330
47
100
AcDbScale
 70
     0
300
1:20
140
1.0
141
20.0
290
     0
  0
SCALE
  5
50
102
{ACAD_REACTORS
330
47
102
}
330
47
100
AcDbScale
 70
     0
300
1:30
140
1.0
141
30.0
290
     0
  0
SCALE
  5
51
102
{ACAD_REACTORS
330
47
102
}
330
47
100
AcDbScale
 70
     0
300
1:40
140
1.0
141
40.0
290
     0
  0
SCALE
  5
52
102
{ACAD_REACTORS
330
47
102
}
330
47
100
AcDbScale
 70
     0
300
1:50
140
1.0
141
50.0
290
     0
  0
SCALE
  5
53
102
{ACAD_REACTORS
330
47
102
}
330
47
100
AcDbScale
 70
     0
300
1:100
140
1.0
141
100.0
290
     0
  0
SCALE
  5
54
102
{ACAD_REACTORS
330
47
102
}
330
47
100
AcDbScale
 70
     0
300
2:1
140
2.0
141
1.0
290
     0
  0
SCALE
  5
55
102
{ACAD_REACTORS
330
47
102
}
330
47
100
AcDbScale
 70
     0
300
4:1
140
4.0
141
1.0
290
     0
  0
SCALE
  5
56
102
{ACAD_REACTORS
330
47
102
}
330
47
100
AcDbScale
 70
     0
300
8:1
140
8.0
141
1.0
290
     0
  0
SCALE
  5
57
102
{ACAD_REACTORS
330
47
102
}
330
47
100
AcDbScale
 70
     0
300
10:1
140
10.0
141
1.0
290
     0
  0
SCALE
  5
58
102
{ACAD_REACTORS
330
47
102
}
330
47
100
AcDbScale
 70
     0
300
100:1
140
100.0
141
1.0
290
     0
  0
SCALE
  5
59
102
{ACAD_REACTORS
330
47
102
}
330
47
100
AcDbScale
 70
     0
300
1/128" = 1'-0"
140
0.0078125
141
12.0
290
     0
  0
SCALE
  5
5A
102
{ACAD_REACTORS
330
47
102
}
330
47
100
AcDbScale
 70
     0
300
1/64" = 1'-0"
140
0.015625
141
12.0
290
     0
  0
SCALE
  5
5B
102
{ACAD_REACTORS
330
47
102
}
330
47
100
AcDbScale
 70
     0
300
1/32" = 1'-0"
140
0.03125
141
12.0
290
     0
  0
SCALE
  5
5C
102
{ACAD_REACTORS
330
47
102
}
330
47
100
AcDbScale
 70
     0
300
1/16" = 1'-0"
140
0.0625
141
12.0
290
     0
  0
SCALE
  5
5D
102
{ACAD_REACTORS
330
47
102
}
330
47
100
AcDbScale
 70
     0
300
3/32" = 1'-0"
140
0.09375
141
12.0
290
     0
  0
SCALE
  5
5E
102
{ACAD_REACTORS
330
47
102
}
330
47
100
AcDbScale
 70
     0
300
1/8" = 1'-0"
140
0.125
141
12.0
290
     0
  0
SCALE
  5
5F
102
{ACAD_REACTORS
330
47
102
}
330
47
100
AcDbScale
 70
     0
300
3/16" = 1'-0"
140
0.1875
141
12.0
290
     0
  0
SCALE
  5
60
102
{ACAD_REACTORS
330
47
102
}
330
47
100
AcDbScale
 70
     0
300
1/4" = 1'-0"
140
0.25
141
12.0
290
     0
  0
SCALE
  5
61
102
{ACAD_REACTORS
330
47
102
}
330
47
100
AcDbScale
 70
     0
300
3/8" = 1'-0"
140
0.375
141
12.0
290
     0
  0
SCALE
  5
62
102
{ACAD_REACTORS
330
47
102
}
330
47
100
AcDbScale
 70
     0
300
1/2" = 1'-0"
140
0.5
141
12.0
290
     0
  0
SCALE
  5
63
102
{ACAD_REACTORS
330
47
102
}
330
47
100
AcDbScale
 70
     0
300
3/4" = 1'-0"
140
0.75
141
12.0
290
     0
  0
SCALE
  5
64
102
{ACAD_REACTORS
330
47
102
}
330
47
100
AcDbScale
 70
     0
300
1" = 1'-0"
140
1.0
141
12.0
290
     0
  0
SCALE
  5
65
102
{ACAD_REACTORS
330
47
102
}
330
47
100
AcDbScale
 70
     0
300
1-1/2" = 1'-0"
140
1.5
141
12.0
290
     0
  0
SCALE
  5
66
102
{ACAD_REACTORS
330
47
102
}
330
47
100
AcDbScale
 70
     0
300
3" = 1'-0"
140
3.0
141
12.0
290
     0
  0
SCALE
  5
67
102
{ACAD_REACTORS
330
47
102
}
330
47
100
AcDbScale
 70
     0
300
6" = 1'-0"
140
6.0
141
12.0
290
     0
  0
SCALE
  5
68
102
{ACAD_REACTORS
330
47
102
}
330
47
100
AcDbScale
 70
     0
300
1'-0" = 1'-0"
140
12.0
141
12.0
290
     0
  0
ENDSEC
  0
EOF
